<svg width="89" height="89" viewBox="0 0 89 89" fill="none" xmlns="http://www.w3.org/2000/svg">
<circle cx="44.5" cy="44.5" r="44.5" fill="#8F76F5"/>
<path d="M24 28.4261C25.9821 26.444 28.6298 24.1446 31.5 25.5C32.4871 25.9661 35.1575 27.9502 34.2056 28.4261" stroke="black" stroke-width="4" stroke-linecap="round"/>
<path d="M54 28.4261C55.9821 26.444 58.6298 24.1446 61.5 25.5C62.4871 25.9661 65.1575 27.9502 64.2056 28.4261" stroke="black" stroke-width="4" stroke-linecap="round"/>
<path d="M43.3409 31.3667C43.3409 37.0588 42.3714 42.9964 40.5375 48.376C40.0491 49.8087 36.7079 53.4663 36.7891 54.9278C36.8202 55.4871 44.0984 55.1798 45.0418 55.1798" stroke="black" stroke-width="4" stroke-linecap="round"/>
<path d="M26.2067 64.7067C35.0228 77.3795 55.7067 71.2067 60.5 62.5" stroke="black" stroke-width="4" stroke-linecap="round"/>
</svg>
