<svg width="33" height="33" viewBox="0 0 33 33" fill="none" xmlns="http://www.w3.org/2000/svg">
<circle cx="16.5" cy="16.5" r="16.5" fill="#8F76F5"/>
<path d="M8.89893 10.54C9.63386 9.80506 10.6156 8.95248 11.6798 9.45503C12.0458 9.62785 13.036 10.3635 12.683 10.54" stroke="black" stroke-width="1.48315" stroke-linecap="round"/>
<path d="M20.0225 10.5401C20.7574 9.80517 21.7391 8.95258 22.8034 9.45513C23.1693 9.62796 24.1595 10.3636 23.8066 10.5401" stroke="black" stroke-width="1.48315" stroke-linecap="round"/>
<path d="M16.0702 11.6304C16.0702 13.7409 15.7108 15.9425 15.0308 17.9372C14.8497 18.4684 13.6108 19.8246 13.6409 20.3665C13.6524 20.5739 16.3511 20.4599 16.7009 20.4599" stroke="black" stroke-width="1.48315" stroke-linecap="round"/>
<path d="M9.71716 23.9925C12.986 28.6914 20.6554 26.4026 22.4326 23.1743" stroke="black" stroke-width="1.48315" stroke-linecap="round"/>
</svg>
