<svg width="33" height="33" viewBox="0 0 33 33" fill="none" xmlns="http://www.w3.org/2000/svg">
<mask id="mask0_943_807" style="mask-type:alpha" maskUnits="userSpaceOnUse" x="0" y="0" width="33" height="33">
<circle cx="16.5" cy="16.5" r="16.5" fill="#8F76F5"/>
</mask>
<g mask="url(#mask0_943_807)">
<path d="M22.4425 13.5042C20.1522 11.6987 16.7212 11.4878 14.2255 12.9965C13.3583 13.5172 12.5591 14.3164 12.4362 15.3188C12.3328 16.1675 12.7318 16.9928 13.1647 17.7322C13.701 18.6434 14.3956 19.5806 15.4224 19.8527C16.6702 20.182 17.9325 19.4257 19.2156 19.3177C20.0201 19.25 20.8219 19.4387 21.6132 19.5988C22.4046 19.7589 23.4353 19.9972 24.2044 19.7472C24.9735 19.4973 25.2705 19.2409 25.587 18.4898C26.7485 19.0183 27.0873 16.7051 26.7354 15.8577C26.3836 15.0103 25.4693 14.6054 24.6034 14.2956C23.7375 13.9858 23.5805 14.1824 22.4425 13.5042Z" fill="#B6ABA3"/>
<path d="M15.4614 14.6871C15.7297 14.9449 15.9831 15.227 16.2768 15.3849C16.5705 15.5429 16.9058 15.6009 17.17 15.4605C17.4342 15.3202 17.6864 15.0367 17.9117 14.7681C18.1357 14.481 18.3336 14.1743 18.5031 13.8517C18.4581 14.231 18.3323 14.5961 18.1343 14.922C18.0368 15.0882 17.9236 15.2446 17.7963 15.389C17.6639 15.5451 17.5039 15.675 17.3243 15.7723C17.1272 15.8709 16.9037 15.9026 16.6872 15.8627C16.4838 15.8251 16.2924 15.7385 16.1293 15.6103C15.8341 15.3631 15.6045 15.0458 15.4614 14.6871Z" fill="black"/>
<path d="M26.2758 17.8639C26.2447 17.9458 26.1975 18.0206 26.1371 18.0838C26.0785 18.1515 26.0065 18.2059 25.9257 18.2435C25.8381 18.2772 25.7431 18.2862 25.6508 18.2697C25.5562 18.2536 25.4671 18.214 25.3914 18.1545H25.477C25.2926 18.2852 25.0926 18.3921 24.8818 18.4726C24.6719 18.5483 24.4545 18.6009 24.2334 18.6297C23.7885 18.7017 23.3333 18.6712 22.9016 18.5407C22.4649 18.3949 22.0808 18.1215 21.7981 17.7552C21.5131 17.3931 21.3638 16.9411 21.3766 16.4788C21.3769 16.4766 21.378 16.4746 21.3797 16.4732C21.3814 16.4717 21.3835 16.4709 21.3857 16.4709C21.3857 16.4709 21.3922 16.471 21.3935 16.4788C21.461 16.9114 21.6469 17.3163 21.9303 17.6479C22.2046 17.9801 22.5543 18.2405 22.9496 18.4072C23.3489 18.5886 23.7925 18.6464 24.2243 18.5734C24.4372 18.5267 24.6429 18.4518 24.8364 18.3509C25.0309 18.2527 25.2255 18.1506 25.4057 18.0341L25.4524 18.0052L25.49 18.0393C25.5438 18.0873 25.6083 18.1214 25.678 18.1388C25.7481 18.1578 25.8219 18.1578 25.892 18.1388C25.9653 18.1145 26.0338 18.0772 26.0943 18.0288C26.1583 17.9795 26.2147 17.9208 26.2616 17.8547C26.2632 17.8533 26.2653 17.8526 26.2674 17.8526C26.2696 17.8526 26.2716 17.8533 26.2733 17.8547C26.2746 17.8557 26.2756 17.8572 26.2761 17.8589C26.2766 17.8605 26.2765 17.8623 26.2758 17.8639Z" fill="black"/>
<path d="M25.5159 18.0764C25.5159 17.6024 25.5159 17.1161 25.5159 16.64" stroke="black" stroke-width="0.64" stroke-miterlimit="10"/>
<path d="M25.5302 16.6348C25.2214 16.3751 24.7516 16.392 24.3617 16.2661C24.1248 16.1908 23.7069 15.9194 23.6057 15.6987C23.4913 15.4494 23.6896 15.1417 23.9571 15.0599C24.0946 15.0279 24.2376 15.0263 24.3758 15.0553C24.514 15.0843 24.6438 15.1431 24.7556 15.2274C24.859 15.31 24.9748 15.3765 25.099 15.4248C25.1568 15.4463 25.2207 15.4459 25.2782 15.4235C25.3357 15.4011 25.3824 15.3585 25.4091 15.304C25.4393 15.2302 25.4758 15.1589 25.5182 15.0911C25.5781 15.0119 25.7498 15.0275 25.831 15.0911C25.9121 15.1547 26.0213 15.2326 26.0226 15.3313C26.0306 15.9026 25.8802 16.2232 25.5368 16.64" fill="black"/>
<path d="M25.5234 16.5662C25.1602 16.2757 24.6716 16.334 24.2591 16.1602C24.0676 16.0803 23.893 15.9669 23.7437 15.8257C23.6687 15.7628 23.6128 15.6812 23.5822 15.5896C23.5602 15.4869 23.5803 15.3799 23.6383 15.2913C23.7043 15.191 23.8014 15.1136 23.9156 15.0702C24.0298 15.0269 24.1552 15.0198 24.2738 15.0501C24.4001 15.0762 24.5207 15.1236 24.6302 15.1901C24.7317 15.2618 24.8369 15.3285 24.9453 15.3899C24.985 15.4154 25.03 15.432 25.0771 15.4385C25.1242 15.4451 25.1722 15.4414 25.2177 15.4277C25.2631 15.4141 25.3049 15.3908 25.34 15.3596C25.3751 15.3284 25.4026 15.29 25.4206 15.2472C25.4673 15.1461 25.498 15.0345 25.6328 15.0423C25.6871 15.0503 25.739 15.0695 25.7851 15.0986C25.8311 15.1277 25.8703 15.166 25.8999 15.2109C25.9328 15.2765 25.9436 15.3505 25.9306 15.4223C25.9306 15.4833 25.9306 15.552 25.9159 15.6065C25.9025 15.7236 25.8757 15.8389 25.8358 15.9502C25.7468 16.1752 25.6185 16.3836 25.4566 16.5662C25.4219 16.6077 25.4833 16.6674 25.518 16.6259C25.6687 16.4518 25.7932 16.258 25.8878 16.05C25.9769 15.8335 26.0223 15.6023 26.0213 15.3691C26.0267 15.3152 26.0183 15.2609 25.9969 15.2109C25.9754 15.1609 25.9417 15.1168 25.8985 15.0825C25.8304 15.0138 25.7398 14.9702 25.6422 14.9593C25.6006 14.9531 25.5581 14.9583 25.5194 14.9744C25.4807 14.9904 25.4474 15.0166 25.4232 15.0501C25.3511 15.1577 25.3338 15.3302 25.1803 15.3562C25.0267 15.3821 24.9026 15.2732 24.7958 15.1992C24.6864 15.1202 24.5665 15.0561 24.4393 15.0086C24.3241 14.9611 24.1986 14.9421 24.0739 14.9531C23.9493 14.9642 23.8295 15.0051 23.725 15.0721C23.6394 15.1307 23.5724 15.2115 23.5318 15.3053C23.4912 15.3991 23.4786 15.5022 23.4954 15.6026C23.5408 15.7945 23.7304 15.9398 23.8866 16.0487C24.1016 16.1962 24.3472 16.2962 24.6062 16.3418C24.8999 16.3989 25.2216 16.4339 25.4606 16.6259C25.5033 16.6596 25.5648 16.6012 25.522 16.5662H25.5234Z" fill="black"/>
<path d="M11.6131 10.2185C11.0562 8.77878 11.0025 7.19048 11.4609 5.71583C11.9193 4.24117 12.8624 2.9683 14.1345 2.1073C14.2059 4.09318 14.2903 6.12099 14.363 8.10687" fill="#C5BEBB"/>
<path d="M14.7009 8.02179C14.8338 6.87268 14.9375 5.57139 15.3468 4.48788C15.7561 3.40436 16.4723 2.38908 17.5089 1.85388C17.5952 3.43078 17.5952 5.01111 17.5089 6.58801" fill="#C5BEBB"/>
<mask id="mask1_943_807" style="mask-type:luminance" maskUnits="userSpaceOnUse" x="11" y="2" width="4" height="9">
<path d="M11.6556 10.2934C11.093 8.83516 11.0318 7.23108 11.4816 5.73416C11.9483 4.26414 12.8974 2.99464 14.1753 2.13123L14.3925 8.08116" fill="white"/>
</mask>
<g mask="url(#mask1_943_807)">
<path d="M13.2517 8.76799C12.9192 6.70817 13.0334 4.60093 13.5866 2.58911L9.20264 3.35576L10.3801 11.3767L13.007 10.3209L13.2582 8.76799" fill="#8F847C"/>
</g>
<path d="M22.2694 40.0294C22.4654 40.3354 22.9829 40.2308 23.1842 39.9248C23.3854 39.6188 23.5684 39.0473 23.5122 38.689C23.192 36.6831 22.1427 34.9374 20.909 33.3276C21.5023 33.5892 22.2263 33.1668 22.4994 32.5757C22.7725 31.9847 22.7111 31.2995 22.6092 30.6561C22.3547 29.0651 21.8837 27.5164 21.2096 26.0531C21.4527 26.3604 21.9545 26.3408 22.2707 26.1107C22.587 25.8805 22.7582 25.5013 22.8915 25.1325C23.48 23.4365 23.5707 21.6073 23.1528 19.8614C21.7153 19.5161 20.4007 18.9722 18.9384 19.1552C17.8642 19.286 16.7808 19.8784 15.7118 19.711C14.8794 19.5802 14.2195 19.0676 13.7098 18.4033C13.2001 17.739 12.8499 17.0381 12.8068 16.1973C12.7683 15.6679 12.8523 15.1367 13.0525 14.6451C13.3491 13.9547 14.3593 12.9451 15.1839 13.1491C15.5668 13.2433 15.8569 13.5676 16.2489 13.5414C16.6135 13.5127 16.8135 13.2577 17.131 13.0785C18.3176 12.409 19.7133 12.6588 21.0358 12.7581C22.3936 12.8601 23.9369 12.4718 24.6805 11.3315C25.0438 10.7757 25.1444 10.0094 24.7837 9.45238C24.4231 8.89532 23.5409 8.70441 23.0692 9.16994C23.6468 8.82472 24.2022 8.37618 24.4596 7.75373C24.7171 7.13129 24.5903 6.31533 24.0192 5.94788C23.5775 5.66412 23.0039 5.71772 22.4929 5.83672C21.1962 6.14009 20.0047 6.78635 19.0429 7.70798C19.2067 7.47442 19.3267 7.21297 19.397 6.93645C19.4305 6.79757 19.4254 6.65221 19.3823 6.51602C19.3393 6.37983 19.2599 6.25798 19.1527 6.16363C18.8038 5.9021 18.3072 6.09694 17.9204 6.2944L13.6471 8.55142C13.1243 8.82733 12.5899 9.1137 12.1952 9.55438C11.6725 10.1441 11.419 10.9824 10.7695 11.4335C10.4519 11.6545 10.0703 11.7591 9.73448 11.95C9.39863 12.1409 9.09022 12.4731 9.11113 12.8562C9.13204 13.2394 9.65738 13.548 9.92789 13.2721C9.33459 13.4643 8.73084 13.6722 8.2434 14.0567C7.75596 14.4411 7.3979 15.0557 7.47761 15.6755C7.55733 16.2954 8.1846 16.8394 8.78442 16.6864C7.97681 17.0028 7.40313 17.7573 7.10387 18.5733C6.8046 19.3893 6.74318 20.2733 6.69483 21.1363C6.65224 21.5137 6.67568 21.8956 6.7641 22.2649C6.87256 22.6271 7.1313 22.9919 7.50374 23.0599C7.73243 23.1017 8.24079 22.8964 8.35971 22.5368V22.5473C8.06024 23.6161 7.95228 24.7296 8.04084 25.836C8.06175 26.0871 8.10096 26.3591 8.27607 26.5383C8.45119 26.7174 8.80664 26.737 8.92948 26.5134C8.7988 27.1673 8.64067 28.0055 8.73477 28.6632C8.82886 29.321 9.19476 29.9787 9.80504 30.239C9.05754 30.8522 8.95954 31.8016 8.86675 32.7627C8.77397 33.7238 8.69033 34.6889 9.30715 35.4317" fill="#CFC4BB"/>
<path d="M18.8896 16.8731C19.1049 16.7688 19.3049 16.6336 19.4835 16.4715C19.5536 16.4159 19.6115 16.3456 19.6534 16.2653C19.6747 16.2255 19.6859 16.1809 19.6859 16.1354C19.6859 16.09 19.6747 16.0453 19.6534 16.0055C19.6127 15.9599 19.5621 15.925 19.5057 15.9036C19.4493 15.8821 19.3888 15.8749 19.3292 15.8824C19.0299 15.8786 18.7318 15.9238 18.4461 16.0163C18.2921 16.0563 18.1505 16.1365 18.0351 16.2492C17.9782 16.3063 17.9387 16.3792 17.9214 16.4592C17.9041 16.5391 17.9098 16.6225 17.9378 16.6991C17.9918 16.8006 18.0799 16.8783 18.1855 16.9173C18.2988 16.9638 18.4206 16.984 18.5423 16.9763C18.664 16.9687 18.7826 16.9335 18.8896 16.8731Z" fill="#D9C8D8"/>
<path d="M8.81194 18.3298C8.72746 18.6483 8.66834 18.9727 8.63509 19.3001C8.60368 19.6227 8.60368 19.9476 8.63509 20.2703C8.64036 20.3389 8.66434 20.405 8.70453 20.4615C8.72097 20.4848 8.74286 20.504 8.76838 20.5174C8.7939 20.5307 8.8223 20.538 8.85125 20.5385C8.91907 20.5252 8.98119 20.4921 9.02941 20.4435L9.22983 20.2921C9.49183 20.0893 9.77218 19.8955 10.0538 19.7094C9.81454 19.9456 9.56825 20.1732 9.31498 20.3922L9.12372 20.5565C9.05318 20.6282 8.96162 20.6766 8.86172 20.695C8.80647 20.6982 8.75125 20.6882 8.70082 20.6658C8.65039 20.6435 8.60626 20.6095 8.57221 20.5667C8.5124 20.4884 8.47528 20.3958 8.46478 20.2985C8.43311 19.9615 8.44765 19.6218 8.50802 19.2885C8.56278 18.9565 8.66509 18.6338 8.81194 18.3298Z" fill="#8F847C"/>
<path d="M10.995 23.5682C10.967 23.8876 10.9765 24.2093 11.0233 24.5264C11.0468 24.6823 11.0807 24.8365 11.1249 24.9877C11.1574 25.1288 11.2315 25.2563 11.3371 25.3531C11.3933 25.3909 11.4569 25.4159 11.5235 25.4264C11.5901 25.4368 11.6581 25.4324 11.7229 25.4135C11.8703 25.3794 12.0132 25.3273 12.1486 25.2585C12.4286 25.1199 12.6787 24.9255 12.8842 24.6867L12.897 24.713L12.7299 24.6933C12.7852 24.6933 12.8417 24.6828 12.897 24.6801H12.9266L12.9099 24.7077C12.7364 24.9891 12.4974 25.2222 12.2142 25.3859C12.0703 25.4689 11.9164 25.5321 11.7563 25.5739C11.6722 25.5947 11.5853 25.6009 11.4991 25.5923C11.4057 25.5823 11.3168 25.5464 11.2419 25.4885C11.1105 25.3686 11.0203 25.2087 10.9847 25.0324C10.8644 24.5517 10.8706 24.047 11.0027 23.5696L10.995 23.5682Z" fill="#8F847C"/>
<path d="M10.6613 29.6517L10.6519 30.4557C10.6519 30.7236 10.6519 30.9916 10.6519 31.2489C10.6516 31.3668 10.6858 31.4823 10.7504 31.5812C10.7844 31.6237 10.8288 31.6569 10.8794 31.6775C10.93 31.6981 10.9851 31.7056 11.0394 31.6991C11.1622 31.6893 11.279 31.6426 11.3743 31.5651C11.4765 31.4793 11.5718 31.3857 11.6592 31.2851C11.5994 31.4083 11.5236 31.5231 11.4337 31.6267C11.3358 31.7377 11.2031 31.8128 11.057 31.8398C10.9776 31.8555 10.8954 31.8499 10.8189 31.8235C10.7425 31.7971 10.6745 31.751 10.6221 31.6897C10.5319 31.567 10.4819 31.4196 10.479 31.2677C10.4707 30.9966 10.4816 30.7252 10.5114 30.4557C10.5391 30.1841 10.5892 29.9152 10.6613 29.6517Z" fill="#8F847C"/>
<path d="M13.9404 28.3039C14.0668 28.5702 14.1932 28.8525 14.2956 29.1322C14.3525 29.2653 14.4031 29.4198 14.4562 29.5449C14.5093 29.6701 14.5901 29.6874 14.6976 29.6195C14.7522 29.5837 14.8009 29.5387 14.8417 29.4863C14.8885 29.4317 14.9327 29.3745 14.9681 29.3172C15.0543 29.2007 15.1333 29.0784 15.2045 28.9511C15.3478 28.6924 15.4623 28.4172 15.5458 28.1309C15.5227 28.438 15.445 28.7379 15.317 29.015C15.253 29.1547 15.1777 29.2883 15.092 29.4144C15.0503 29.477 15.0035 29.5369 14.9555 29.5969C14.904 29.6618 14.843 29.7175 14.7747 29.762C14.7352 29.7892 14.6908 29.8075 14.6442 29.8157C14.5977 29.824 14.55 29.822 14.5042 29.8099C14.46 29.7933 14.4197 29.7667 14.3863 29.732C14.3529 29.6972 14.3271 29.6552 14.3108 29.6088C14.2552 29.4544 14.2147 29.3199 14.1705 29.1721C14.0883 28.8898 14.0087 28.5982 13.9404 28.3039Z" fill="#8F847C"/>
<path d="M16.4752 23.1959C16.5419 23.5701 16.6594 23.9339 16.8244 24.2775C16.903 24.4461 16.9975 24.6071 17.1066 24.7584C17.1556 24.8245 17.2206 24.8777 17.2957 24.9131C17.3265 24.9258 17.3604 24.9292 17.3932 24.9228C17.426 24.9164 17.456 24.9004 17.4795 24.877C17.5402 24.8136 17.5906 24.7414 17.6291 24.663C17.6777 24.5818 17.7223 24.4979 17.7604 24.4154C17.8496 24.2478 17.9258 24.0751 17.9993 23.8998C18.141 23.5454 18.253 23.1802 18.334 22.8079C18.3174 23.1942 18.2463 23.5765 18.1227 23.9436C18.0619 24.1281 17.9891 24.3085 17.9048 24.4838C17.8628 24.5714 17.8168 24.6578 17.7735 24.7416C17.7277 24.8366 17.6665 24.9237 17.5923 24.9994C17.5455 25.0427 17.4873 25.0721 17.4243 25.0845C17.3601 25.0949 17.2943 25.0877 17.234 25.0639C17.1316 25.0179 17.0437 24.9458 16.9793 24.8551C16.9218 24.7729 16.8705 24.6867 16.8257 24.5972C16.7797 24.5107 16.7389 24.4216 16.7036 24.3304C16.5556 23.9697 16.4781 23.5848 16.4752 23.1959Z" fill="#8F847C"/>
<path d="M19.6016 30.7141C19.6411 30.8045 19.7113 30.8785 19.8002 30.9231C19.889 30.9677 19.9909 30.9802 20.0881 30.9584C20.1795 30.9317 20.2638 30.8852 20.3349 30.8224C20.406 30.7596 20.4621 30.682 20.4993 30.5952C20.5874 30.4139 20.6382 30.2171 20.6487 30.0163C20.66 29.808 20.6373 29.5993 20.5812 29.3982C20.7021 29.5831 20.7715 29.7963 20.7822 30.0163C20.7955 30.2417 20.75 30.4667 20.65 30.6696C20.5965 30.7739 20.5234 30.867 20.4345 30.9441C20.3418 31.0241 20.2264 31.0739 20.1039 31.0865C19.9836 31.0956 19.8637 31.0638 19.7642 30.9963C19.7164 30.9654 19.6767 30.9236 19.6485 30.8746C19.6202 30.8255 19.6041 30.7705 19.6016 30.7141Z" fill="#8F847C"/>
<path d="M21.1605 23.1128C21.1487 23.1791 21.15 23.2471 21.1642 23.3129C21.1784 23.3787 21.2053 23.4411 21.2433 23.4963C21.3122 23.6036 21.4144 23.6846 21.5336 23.7267C21.6538 23.7588 21.78 23.7595 21.9005 23.7285C22.0209 23.6975 22.1316 23.6359 22.2221 23.5496C22.4087 23.3664 22.5349 23.1292 22.5834 22.8704C22.6332 22.5989 22.6608 22.3236 22.6661 22.0475C22.7267 22.3254 22.7427 22.6114 22.7134 22.8944C22.6824 23.1925 22.5484 23.4698 22.3351 23.6774C22.2225 23.7788 22.0872 23.8505 21.9409 23.8865C21.7915 23.9221 21.6349 23.9095 21.4929 23.8506C21.3533 23.7888 21.2407 23.6775 21.1763 23.5376C21.1437 23.4721 21.1254 23.4002 21.1227 23.3269C21.1199 23.2536 21.1329 23.1806 21.1605 23.1128Z" fill="#8F847C"/>
</g>
</svg>
