<svg width="24" height="26" viewBox="0 0 24 26" fill="none" xmlns="http://www.w3.org/2000/svg">
<path d="M1 19.8823V6C1 3.23858 3.23858 1 6 1H18C20.7614 1 23 3.23858 23 6.00001V19.8824C23 22.6438 20.7614 24.8824 18 24.8824H6C3.23858 24.8824 1 22.6438 1 19.8823Z" stroke="black" stroke-width="1.5" stroke-linecap="round"/>
<path d="M5.40002 10H17.5M5.40002 12.9853H14.75M5.40002 16.8235H17.5M5.40002 19.8088H10.35" stroke="black" stroke-width="2" stroke-linecap="round"/>
<path d="M7 5.67621C5.49714 5.67621 5.05299 3.3151 5.0046 2.1997C4.99981 2.08935 5.08954 2 5.2 2H18.8C18.9105 2 19.0002 2.08935 18.9954 2.1997C18.947 3.3151 18.5029 5.67621 17 5.67621H7Z" stroke="black" stroke-width="1.5" stroke-linecap="round"/>
</svg>
