<svg width="11" height="18" viewBox="0 0 11 18" fill="none" xmlns="http://www.w3.org/2000/svg">
<path d="M9.15955 8.14619C9.24273 7.73721 9.40601 7.31273 9.61689 6.86141C9.83765 8.40451 10 10.1386 10 11.4135C10 14.4625 9.38499 15.7177 8.71959 16.2866C8.02432 16.8811 6.99138 17 5.35919 17C3.87896 17 2.89338 16.7094 2.25642 16.1967C1.64497 15.7045 1.19155 14.874 1.06738 13.4089C0.899785 11.4314 1.06774 9.52708 1.31964 8.12349C1.36033 7.89678 1.40281 7.68537 1.44582 7.49082C1.55412 7.78931 1.65612 8.12263 1.74995 8.46861C1.91773 9.08727 2.04475 9.6899 2.13278 10.1119C2.1364 10.1292 2.14 10.1465 2.14359 10.1638C2.18034 10.3401 2.21562 10.5095 2.24264 10.6141C2.25014 10.6431 2.26366 10.6938 2.28276 10.7477C2.29123 10.7716 2.31162 10.8275 2.34573 10.8924C2.36257 10.9245 2.39564 10.9837 2.44789 11.0501C2.48915 11.1025 2.60755 11.2449 2.81715 11.3415C3.08613 11.4654 3.4383 11.4782 3.75063 11.2916C3.99272 11.1469 4.10076 10.9452 4.1364 10.8728C4.20971 10.724 4.22805 10.5895 4.23184 10.5618C4.23198 10.5608 4.23209 10.5599 4.23219 10.5592C4.24387 10.4758 4.24391 10.401 4.24391 10.3735C4.24391 8.0846 4.84619 5.20144 5.53575 3.12267C5.64282 2.79989 5.74896 2.50594 5.85166 2.24335C5.88648 2.42269 5.92168 2.61095 5.95716 2.80678C6.08088 3.48945 6.20121 4.22304 6.31804 4.9352C6.36137 5.19934 6.40421 5.46053 6.44657 5.71509C6.59878 6.62985 6.74997 7.49382 6.89141 8.02298C6.92742 8.15772 6.97033 8.30012 7.02227 8.42821C7.04815 8.49203 7.08466 8.57339 7.13477 8.65687C7.17643 8.72627 7.27211 8.87418 7.44225 8.99893C7.64383 9.14673 8.00089 9.28779 8.40836 9.14275C8.73886 9.02511 8.90451 8.7825 8.96326 8.68663C9.08667 8.48521 9.13596 8.26213 9.15955 8.14619ZM1.84719 6.1682C1.8472 6.16827 1.84633 6.1698 1.84455 6.17262C1.84629 6.16954 1.84718 6.16814 1.84719 6.1682ZM7.18945 7.79031C7.18937 7.79008 7.1904 7.7859 7.19281 7.77847C7.19073 7.78683 7.18952 7.79055 7.18945 7.79031Z" stroke="black" stroke-width="2" stroke-linecap="round"/>
</svg>
