<svg width="231" height="369" viewBox="0 0 231 369" fill="none" xmlns="http://www.w3.org/2000/svg">
<path d="M50.6118 133.245C76.8066 112.595 116.046 110.183 144.59 127.438C154.508 133.393 163.649 142.535 165.055 153.998C166.237 163.705 161.674 173.144 156.722 181.601C150.589 192.022 142.645 202.741 130.902 205.853C116.63 209.62 102.194 200.97 87.5179 199.734C78.3176 198.96 69.1472 201.118 60.0965 202.95C51.0458 204.781 39.2573 207.505 30.4609 204.647C21.6645 201.788 18.2686 198.855 14.6484 190.265C1.36398 196.31 -2.51067 169.854 1.51353 160.162C5.53775 150.47 15.9946 145.84 25.898 142.296C35.8015 138.753 37.5967 141.001 50.6118 133.245Z" fill="#EDD4C2"/>
<path d="M130.455 146.775C127.388 149.723 124.489 152.95 121.13 154.756C117.77 156.562 113.936 157.226 110.914 155.62C107.892 154.015 105.008 150.773 102.432 147.701C99.8701 144.418 97.6064 140.91 95.6673 137.22C96.1824 141.558 97.6211 145.733 99.8855 149.461C101.001 151.362 102.295 153.151 103.751 154.802C105.265 156.587 107.096 158.074 109.15 159.186C111.404 160.313 113.96 160.676 116.436 160.22C118.763 159.79 120.952 158.799 122.817 157.334C126.194 154.506 128.819 150.877 130.455 146.775Z" fill="black"/>
<path d="M6.7705 183.107C7.12703 184.045 7.66665 184.9 8.35738 185.623C9.02703 186.396 9.8508 187.019 10.7749 187.449C11.7769 187.834 12.8635 187.937 13.9191 187.749C15.0008 187.564 16.0202 187.112 16.8854 186.431H15.9065C18.0161 187.926 20.3033 189.149 22.7142 190.069C25.1152 190.935 27.6014 191.537 30.1299 191.866C35.2183 192.689 40.425 192.341 45.3615 190.848C50.3567 189.181 54.7494 186.054 57.983 181.864C61.2425 177.723 62.9494 172.553 62.8032 167.266C62.7996 167.241 62.7872 167.218 62.7681 167.201C62.749 167.185 62.7246 167.176 62.6995 167.176C62.6995 167.176 62.6252 167.176 62.6104 167.266C61.8385 172.214 59.7117 176.845 56.4702 180.637C53.3331 184.436 49.3341 187.415 44.8128 189.321C40.2461 191.396 35.1727 192.057 30.2336 191.222C27.7997 190.687 25.4461 189.832 23.2333 188.677C21.0086 187.554 18.7838 186.386 16.7223 185.054L16.1884 184.724L15.7582 185.113C15.1429 185.662 14.4051 186.053 13.6077 186.251C12.8062 186.469 11.962 186.469 11.1605 186.251C10.3219 185.973 9.53854 185.547 8.84675 184.994C8.11483 184.429 7.47017 183.758 6.93363 183.002C6.91493 182.987 6.89124 182.978 6.86682 182.978C6.84241 182.978 6.81871 182.987 6.80001 183.002C6.78437 183.014 6.77315 183.031 6.76779 183.05C6.76243 183.069 6.76339 183.089 6.7705 183.107Z" fill="black"/>
<path d="M15.4614 185.537C15.4614 180.115 15.4614 174.554 15.4614 169.109" stroke="black" stroke-width="0.64" stroke-miterlimit="10"/>
<path d="M15.2986 169.049C18.8299 166.08 24.2031 166.273 28.6629 164.832C31.3723 163.971 36.1518 160.868 37.3086 158.343C38.6177 155.492 36.3497 151.973 33.2902 151.037C31.7179 150.671 30.0815 150.653 28.5011 150.984C26.9207 151.316 25.4365 151.989 24.1575 152.953C22.9748 153.897 21.6502 154.659 20.2303 155.21C19.5694 155.457 18.8376 155.451 18.1805 155.196C17.5233 154.94 16.989 154.452 16.6838 153.829C16.3385 152.985 15.9211 152.17 15.4357 151.394C14.7508 150.488 12.7871 150.666 11.8586 151.394C10.9301 152.121 9.68204 153.012 9.66682 154.141C9.57549 160.675 11.2955 164.342 15.2226 169.109" fill="black"/>
<path d="M15.3767 168.266C19.5299 164.943 25.1184 165.611 29.8366 163.623C32.0259 162.709 34.0237 161.412 35.7305 159.796C36.5888 159.077 37.2279 158.144 37.5782 157.097C37.8293 155.922 37.5992 154.698 36.9368 153.685C36.1816 152.537 35.0712 151.652 33.7652 151.156C32.4591 150.66 31.0248 150.58 29.6686 150.926C28.2239 151.225 26.844 151.767 25.5917 152.528C24.4306 153.347 23.228 154.11 21.9882 154.812C21.5342 155.104 21.0193 155.294 20.4806 155.368C19.942 155.443 19.3929 155.401 18.873 155.245C18.3531 155.089 17.8754 154.823 17.4742 154.466C17.0729 154.109 16.7581 153.67 16.5524 153.181C16.018 152.024 15.6669 150.748 14.1247 150.837C13.5037 150.929 12.9101 151.148 12.3834 151.481C11.8568 151.814 11.4093 152.251 11.0709 152.765C10.6936 153.515 10.5705 154.361 10.7195 155.183C10.7195 155.88 10.7197 156.666 10.8876 157.289C11.0403 158.629 11.3475 159.948 11.8038 161.22C12.8214 163.794 14.2884 166.177 16.1402 168.266C16.5371 168.741 15.8348 169.423 15.4378 168.948C13.715 166.958 12.291 164.741 11.2082 162.362C10.1892 159.886 9.6708 157.242 9.68131 154.575C9.62006 153.959 9.71625 153.337 9.96127 152.765C10.2063 152.193 10.5925 151.689 11.086 151.297C11.8653 150.511 12.9018 150.013 14.0177 149.888C14.4933 149.817 14.9797 149.876 15.4222 150.06C15.8647 150.243 16.2456 150.544 16.5219 150.926C17.3464 152.157 17.5448 154.13 19.3008 154.427C21.0567 154.723 22.4768 153.477 23.6983 152.632C24.9487 151.728 26.3204 150.994 27.7753 150.451C29.0929 149.908 30.5284 149.69 31.9538 149.817C33.3792 149.944 34.7501 150.412 35.9443 151.178C36.924 151.848 37.69 152.772 38.1545 153.845C38.6189 154.918 38.763 156.096 38.5705 157.245C38.0514 159.44 35.8832 161.102 34.0967 162.348C31.6373 164.034 28.8285 165.178 25.8666 165.7C22.5074 166.353 18.8275 166.753 16.0943 168.948C15.6057 169.334 14.9034 168.666 15.392 168.266H15.3767Z" fill="black"/>
<path d="M174.469 95.6673C180.838 79.201 181.452 61.0356 176.209 44.1699C170.967 27.3042 160.18 12.7463 145.631 2.89901C144.815 25.6116 143.849 48.8037 143.018 71.5163" fill="#F1E8E3"/>
<path d="M139.152 70.5426C137.633 57.4002 136.447 42.5173 131.766 30.1251C127.085 17.7329 118.893 6.12109 107.038 0C106.05 18.035 106.05 36.1094 107.038 54.1444" fill="#F1E8E3"/>
<mask id="mask0_137_780" style="mask-type:luminance" maskUnits="userSpaceOnUse" x="142" y="3" width="38" height="94">
<path d="M173.982 96.5234C180.417 79.8451 181.117 61.4991 175.972 44.3788C170.636 27.5661 159.781 13.0468 145.164 3.17189L142.681 71.2215" fill="white"/>
</mask>
<g mask="url(#mask0_137_780)">
<path d="M155.728 79.0769C159.531 55.5186 158.225 31.418 151.898 8.40877L202.037 17.177L188.571 108.912L158.526 96.8376L155.653 79.0769" fill="#E0D4CB"/>
</g>
<path d="M52.5912 436.615C50.3493 440.115 44.4307 438.918 42.129 435.419C39.8273 431.919 37.7348 425.383 38.3775 421.285C42.0393 398.343 54.0409 378.377 68.15 359.967C61.3645 362.958 53.0845 358.127 49.9607 351.367C46.837 344.607 47.5393 336.771 48.7051 329.412C51.6164 311.216 57.0022 293.504 64.7125 276.768C61.9325 280.283 56.1932 280.058 52.5763 277.426C48.9593 274.794 47.0014 270.457 45.4769 266.239C38.7456 246.842 37.7082 225.921 42.4877 205.953C58.9284 202.004 73.9641 195.783 90.6888 197.877C102.974 199.372 115.365 206.147 127.591 204.233C137.111 202.737 144.659 196.875 150.488 189.277C156.317 181.68 160.322 173.663 160.816 164.047C161.256 157.992 160.295 151.917 158.006 146.294C154.613 138.398 143.06 126.851 133.629 129.185C129.25 130.261 125.932 133.97 121.448 133.671C117.278 133.342 114.991 130.426 111.359 128.377C97.7881 120.72 81.8257 123.576 66.7003 124.713C51.1713 125.879 33.5199 121.438 25.0156 108.396C20.8606 102.04 19.7097 93.2758 23.8348 86.9047C27.9599 80.5335 38.0487 78.3501 43.4443 83.6743C36.8381 79.726 30.486 74.5961 27.5416 67.4771C24.5972 60.3582 26.047 51.0261 32.5784 46.8235C37.6302 43.5781 44.1914 44.1912 50.0354 45.5521C64.8658 49.0218 78.4929 56.4132 89.493 66.9539C87.6196 64.2826 86.2472 61.2925 85.4427 58.1298C85.0603 56.5415 85.1186 54.879 85.6111 53.3214C86.1036 51.7638 87.0118 50.3702 88.2376 49.2911C92.2282 46.2999 97.9076 48.5283 102.332 50.7867L151.205 76.6003C157.184 79.756 163.297 83.0312 167.81 88.0712C173.789 94.8163 176.688 104.403 184.117 109.563C187.749 112.09 192.113 113.287 195.954 115.47C199.795 117.654 203.322 121.452 203.083 125.835C202.844 130.217 196.836 133.746 193.742 130.591C200.527 132.789 207.432 135.167 213.007 139.564C218.582 143.961 222.677 150.99 221.766 158.079C220.854 165.168 213.68 171.39 206.82 169.64C216.056 173.259 222.618 181.889 226.04 191.221C229.463 200.553 230.165 210.664 230.718 220.534C231.206 224.85 230.937 229.218 229.926 233.441C228.686 237.584 225.727 241.757 221.467 242.534C218.851 243.013 213.037 240.665 211.677 236.552V236.672C215.102 248.896 216.337 261.63 215.324 274.285C215.085 277.157 214.636 280.268 212.634 282.317C210.631 284.366 206.566 284.59 205.161 282.033C206.655 289.511 208.464 299.097 207.388 306.62C206.312 314.143 202.127 321.665 195.147 324.642C203.696 331.656 204.817 342.513 205.878 353.506C206.939 364.498 207.896 375.536 200.841 384.031" fill="#F5EAE1"/>
<path d="M91.2463 171.776C88.7837 170.583 86.497 169.036 84.4538 167.182C83.6523 166.546 82.9901 165.743 82.5109 164.824C82.2667 164.369 82.1386 163.858 82.1386 163.339C82.1386 162.819 82.2667 162.308 82.5109 161.853C82.9764 161.332 83.5555 160.932 84.2002 160.687C84.8449 160.442 85.5366 160.359 86.2186 160.445C89.6424 160.402 93.0512 160.919 96.3185 161.976C98.0807 162.434 99.6993 163.351 101.02 164.64C101.67 165.293 102.122 166.127 102.32 167.041C102.517 167.955 102.452 168.909 102.132 169.785C101.515 170.947 100.507 171.835 99.2996 172.281C98.0037 172.813 96.6102 173.044 95.2183 172.956C93.8265 172.869 92.4703 172.466 91.2463 171.776Z" fill="#EDD1EC"/>
<path d="M206.505 188.436C207.471 192.078 208.147 195.788 208.527 199.532C208.886 203.222 208.886 206.938 208.527 210.628C208.467 211.414 208.193 212.169 207.733 212.815C207.545 213.082 207.295 213.301 207.003 213.454C206.711 213.608 206.386 213.69 206.055 213.696C205.279 213.544 204.569 213.165 204.017 212.61L201.725 210.878C198.729 208.559 195.522 206.342 192.301 204.214C195.038 206.915 197.855 209.518 200.751 212.023L202.939 213.902C203.745 214.722 204.793 215.275 205.935 215.487C206.567 215.523 207.199 215.408 207.775 215.153C208.352 214.897 208.857 214.508 209.246 214.019C209.93 213.123 210.355 212.064 210.475 210.951C210.837 207.097 210.671 203.211 209.98 199.4C209.354 195.603 208.184 191.912 206.505 188.436Z" fill="#E0D4CB"/>
<path d="M181.537 248.349C181.858 252.001 181.749 255.68 181.214 259.307C180.945 261.091 180.557 262.853 180.052 264.583C179.68 266.196 178.833 267.655 177.625 268.762C176.982 269.195 176.254 269.481 175.493 269.6C174.731 269.719 173.953 269.669 173.213 269.453C171.526 269.063 169.892 268.467 168.344 267.68C165.141 266.095 162.281 263.871 159.931 261.141L159.784 261.441L161.696 261.216C161.063 261.216 160.416 261.095 159.784 261.065H159.446L159.637 261.381C161.621 264.599 164.355 267.264 167.594 269.138C169.239 270.087 171 270.809 172.83 271.287C173.792 271.525 174.787 271.596 175.772 271.497C176.84 271.383 177.857 270.973 178.713 270.31C180.216 268.939 181.248 267.11 181.655 265.094C183.032 259.596 182.961 253.824 181.449 248.364L181.537 248.349Z" fill="#E0D4CB"/>
<path d="M185.354 317.925L185.462 327.119C185.462 330.184 185.462 333.249 185.462 336.192C185.465 337.54 185.073 338.86 184.334 339.992C183.945 340.478 183.438 340.857 182.859 341.094C182.28 341.33 181.65 341.415 181.029 341.34C179.625 341.228 178.289 340.694 177.199 339.808C176.03 338.827 174.94 337.756 173.941 336.605C174.624 338.014 175.492 339.328 176.52 340.513C177.639 341.782 179.157 342.641 180.829 342.95C181.736 343.13 182.676 343.065 183.551 342.764C184.425 342.462 185.202 341.934 185.802 341.233C186.834 339.829 187.406 338.144 187.439 336.406C187.533 333.306 187.409 330.203 187.068 327.119C186.751 324.013 186.178 320.938 185.354 317.925Z" fill="#E0D4CB"/>
<path d="M147.85 302.51C146.404 305.556 144.958 308.785 143.787 311.983C143.136 313.506 142.558 315.272 141.951 316.703C141.344 318.135 140.419 318.333 139.19 317.556C138.565 317.147 138.008 316.632 137.542 316.033C137.007 315.409 136.501 314.754 136.096 314.099C135.11 312.767 134.207 311.368 133.393 309.911C131.754 306.953 130.444 303.805 129.489 300.531C129.754 304.044 130.641 307.474 132.106 310.642C132.837 312.24 133.698 313.769 134.679 315.211C135.156 315.927 135.691 316.612 136.241 317.297C136.829 318.04 137.527 318.677 138.308 319.186C138.76 319.497 139.268 319.706 139.8 319.8C140.333 319.895 140.878 319.872 141.402 319.734C141.907 319.544 142.368 319.24 142.75 318.843C143.132 318.445 143.427 317.965 143.614 317.434C144.25 315.668 144.712 314.13 145.218 312.439C146.158 309.211 147.069 305.876 147.85 302.51Z" fill="#E0D4CB"/>
<path d="M118.859 244.089C118.097 248.37 116.753 252.53 114.866 256.46C113.967 258.388 112.887 260.23 111.638 261.96C111.078 262.716 110.335 263.324 109.476 263.729C109.124 263.875 108.735 263.914 108.36 263.84C107.986 263.766 107.642 263.584 107.374 263.316C106.679 262.591 106.102 261.765 105.663 260.869C105.107 259.94 104.597 258.981 104.161 258.037C103.14 256.121 102.269 254.145 101.429 252.14C99.8075 248.087 98.527 243.91 97.6 239.651C97.7903 244.07 98.604 248.442 100.017 252.641C100.712 254.751 101.545 256.814 102.51 258.819C102.99 259.822 103.515 260.809 104.011 261.768C104.534 262.854 105.234 263.85 106.083 264.717C106.618 265.211 107.284 265.548 108.005 265.69C108.739 265.808 109.491 265.726 110.181 265.454C111.352 264.927 112.358 264.103 113.094 263.065C113.751 262.125 114.338 261.14 114.851 260.117C115.377 259.127 115.843 258.108 116.247 257.064C117.94 252.939 118.827 248.537 118.859 244.089Z" fill="#E0D4CB"/>
<path d="M83.105 330.076C82.6532 331.11 81.8498 331.956 80.8335 332.466C79.8173 332.977 78.6523 333.119 77.5406 332.87C76.4948 332.564 75.5306 332.033 74.7175 331.315C73.9043 330.596 73.2625 329.708 72.8381 328.715C71.8298 326.642 71.2489 324.392 71.1294 322.095C70.9994 319.713 71.2598 317.326 71.9006 315.026C70.5175 317.141 69.7246 319.579 69.6022 322.095C69.4499 324.673 69.9706 327.246 71.1143 329.567C71.7255 330.76 72.5621 331.825 73.579 332.706C74.6387 333.622 75.9592 334.19 77.3592 334.335C78.7356 334.44 80.1068 334.076 81.2451 333.304C81.7915 332.95 82.2451 332.472 82.5684 331.911C82.8917 331.35 83.0756 330.721 83.105 330.076Z" fill="#E0D4CB"/>
<path d="M159.724 370.588C160.29 369.78 160.841 368.986 161.378 368.163L160.943 367.928C158.94 371.059 157.068 374.278 155.138 377.496C154.305 379.101 153.374 380.652 152.352 382.141C151.91 382.778 151.309 383.285 150.611 383.61C150.327 383.713 150.021 383.741 149.724 383.689C149.426 383.638 149.147 383.509 148.913 383.317C147.854 382.464 147.36 380.524 146.649 378.819C145.938 377.114 145.3 375.351 144.588 373.631C143.137 370.177 141.686 366.752 140.119 363.343C141.062 366.958 142.121 370.544 143.268 374.086C143.834 375.865 144.429 377.629 145.038 379.392C145.343 380.289 145.604 381.142 145.982 382.067C146.341 383.095 146.95 384.015 147.752 384.742C148.229 385.144 148.802 385.411 149.413 385.517C150.025 385.623 150.653 385.564 151.235 385.345C152.243 384.914 153.116 384.213 153.76 383.317C154.335 382.531 154.822 381.683 155.211 380.789L156.473 378.305C158.113 374.968 159.738 371.617 161.233 368.193L160.798 367.943C160.522 368.795 160.159 369.692 159.724 370.588Z" fill="#E0D4CB"/>
<path d="M65.2738 243.139C65.4088 243.897 65.3948 244.675 65.2323 245.427C65.0698 246.18 64.7622 246.893 64.3271 247.525C63.5387 248.752 62.3707 249.678 61.0064 250.16C59.6323 250.527 58.1886 250.534 56.811 250.18C55.4335 249.826 54.1676 249.122 53.1329 248.134C50.9983 246.039 49.555 243.326 49.0007 240.367C48.4312 237.261 48.1146 234.113 48.0541 230.954C47.361 234.133 47.1784 237.403 47.5132 240.641C47.8682 244.05 49.4011 247.222 51.8407 249.596C53.1276 250.755 54.6754 251.576 56.3484 251.987C58.057 252.394 59.8483 252.251 61.4723 251.576C63.0692 250.87 64.3567 249.597 65.0934 247.997C65.4665 247.248 65.6757 246.426 65.7068 245.588C65.7379 244.749 65.5902 243.914 65.2738 243.139Z" fill="#E0D4CB"/>
</svg>
