<svg width="33" height="33" viewBox="0 0 33 33" fill="none" xmlns="http://www.w3.org/2000/svg">
<circle cx="16.5" cy="16.5" r="16.5" fill="#8F76F5"/>
<mask id="mask0_137_1075" style="mask-type:alpha" maskUnits="userSpaceOnUse" x="0" y="0" width="33" height="33">
<circle cx="16.5" cy="16.5" r="16.5" fill="#8F76F5"/>
</mask>
<g mask="url(#mask0_137_1075)">
<path d="M22.4425 13.5042C20.1522 11.6987 16.7212 11.4878 14.2255 12.9965C13.3583 13.5172 12.5591 14.3165 12.4362 15.3188C12.3328 16.1676 12.7318 16.9929 13.1647 17.7322C13.701 18.6434 14.3956 19.5807 15.4224 19.8528C16.6702 20.1821 17.9325 19.4258 19.2156 19.3177C20.0201 19.25 20.8219 19.4388 21.6132 19.5989C22.4046 19.759 23.4353 19.9972 24.2044 19.7473C24.9735 19.4974 25.2705 19.2409 25.587 18.4898C26.7485 19.0183 27.0873 16.7052 26.7354 15.8577C26.3836 15.0103 25.4693 14.6055 24.6034 14.2957C23.7375 13.9859 23.5805 14.1824 22.4425 13.5042Z" fill="#EDD4C2"/>
<path d="M15.4614 14.6872C15.7297 14.945 15.9831 15.2271 16.2768 15.385C16.5705 15.543 16.9058 15.601 17.17 15.4606C17.4342 15.3203 17.6864 15.0368 17.9117 14.7682C18.1357 14.4811 18.3336 14.1744 18.5031 13.8518C18.4581 14.2311 18.3323 14.5961 18.1343 14.9221C18.0368 15.0883 17.9236 15.2447 17.7963 15.3891C17.6639 15.5452 17.5039 15.6751 17.3243 15.7724C17.1272 15.8709 16.9037 15.9027 16.6872 15.8628C16.4838 15.8252 16.2924 15.7386 16.1293 15.6104C15.8341 15.3632 15.6045 15.0459 15.4614 14.6872Z" fill="black"/>
<path d="M26.2758 17.864C26.2447 17.9459 26.1975 18.0207 26.1371 18.0839C26.0785 18.1516 26.0065 18.206 25.9257 18.2436C25.8381 18.2773 25.7431 18.2863 25.6508 18.2698C25.5562 18.2537 25.4671 18.2141 25.3914 18.1546H25.477C25.2926 18.2853 25.0926 18.3922 24.8818 18.4727C24.6719 18.5484 24.4545 18.601 24.2334 18.6298C23.7885 18.7018 23.3333 18.6713 22.9016 18.5408C22.4649 18.395 22.0808 18.1216 21.7981 17.7553C21.5131 17.3932 21.3638 16.9412 21.3766 16.4789C21.3769 16.4767 21.378 16.4747 21.3797 16.4732C21.3814 16.4718 21.3835 16.471 21.3857 16.471C21.3857 16.471 21.3922 16.471 21.3935 16.4789C21.461 16.9115 21.6469 17.3164 21.9303 17.648C22.2046 17.9802 22.5543 18.2406 22.9496 18.4073C23.3489 18.5887 23.7925 18.6465 24.2243 18.5735C24.4372 18.5268 24.6429 18.4519 24.8364 18.351C25.0309 18.2528 25.2255 18.1507 25.4057 18.0342L25.4524 18.0053L25.49 18.0394C25.5438 18.0874 25.6083 18.1215 25.678 18.1389C25.7481 18.1579 25.8219 18.1579 25.892 18.1389C25.9653 18.1145 26.0338 18.0773 26.0943 18.0289C26.1583 17.9796 26.2147 17.9209 26.2616 17.8548C26.2632 17.8534 26.2653 17.8527 26.2674 17.8527C26.2696 17.8527 26.2716 17.8534 26.2733 17.8548C26.2746 17.8558 26.2756 17.8573 26.2761 17.859C26.2766 17.8606 26.2765 17.8624 26.2758 17.864Z" fill="black"/>
<path d="M25.5159 18.0764C25.5159 17.6024 25.5159 17.1161 25.5159 16.64" stroke="black" stroke-width="0.64" stroke-miterlimit="10"/>
<path d="M25.5302 16.6348C25.2214 16.3751 24.7516 16.392 24.3617 16.2661C24.1248 16.1908 23.7069 15.9194 23.6057 15.6987C23.4913 15.4494 23.6896 15.1417 23.9571 15.0599C24.0946 15.0279 24.2376 15.0263 24.3758 15.0553C24.514 15.0843 24.6438 15.1431 24.7556 15.2274C24.859 15.31 24.9748 15.3765 25.099 15.4248C25.1568 15.4463 25.2207 15.4459 25.2782 15.4235C25.3357 15.4011 25.3824 15.3585 25.4091 15.304C25.4393 15.2302 25.4758 15.1589 25.5182 15.0911C25.5781 15.0119 25.7498 15.0275 25.831 15.0911C25.9121 15.1547 26.0213 15.2326 26.0226 15.3313C26.0306 15.9026 25.8802 16.2232 25.5368 16.64" fill="black"/>
<path d="M25.5234 16.5663C25.1602 16.2758 24.6716 16.3342 24.2591 16.1604C24.0676 16.0804 23.893 15.967 23.7437 15.8258C23.6687 15.7629 23.6128 15.6813 23.5822 15.5897C23.5602 15.487 23.5803 15.38 23.6383 15.2914C23.7043 15.1911 23.8014 15.1137 23.9156 15.0703C24.0298 15.027 24.1552 15.0199 24.2738 15.0502C24.4001 15.0763 24.5207 15.1237 24.6302 15.1903C24.7317 15.2619 24.8369 15.3286 24.9453 15.39C24.985 15.4155 25.03 15.4321 25.0771 15.4386C25.1242 15.4452 25.1722 15.4415 25.2177 15.4279C25.2631 15.4142 25.3049 15.3909 25.34 15.3597C25.3751 15.3285 25.4026 15.2901 25.4206 15.2474C25.4673 15.1462 25.498 15.0346 25.6328 15.0424C25.6871 15.0505 25.739 15.0697 25.7851 15.0987C25.8311 15.1278 25.8703 15.1661 25.8999 15.211C25.9328 15.2766 25.9436 15.3506 25.9306 15.4224C25.9306 15.4834 25.9306 15.5521 25.9159 15.6066C25.9025 15.7237 25.8757 15.839 25.8358 15.9503C25.7468 16.1753 25.6185 16.3837 25.4566 16.5663C25.4219 16.6078 25.4833 16.6675 25.518 16.626C25.6687 16.452 25.7932 16.2581 25.8878 16.0502C25.9769 15.8336 26.0223 15.6024 26.0213 15.3693C26.0267 15.3154 26.0183 15.261 25.9969 15.211C25.9754 15.161 25.9417 15.1169 25.8985 15.0826C25.8304 15.0139 25.7398 14.9703 25.6422 14.9594C25.6006 14.9532 25.5581 14.9584 25.5194 14.9745C25.4807 14.9905 25.4474 15.0168 25.4232 15.0502C25.3511 15.1579 25.3338 15.3303 25.1803 15.3563C25.0267 15.3822 24.9026 15.2733 24.7958 15.1994C24.6864 15.1203 24.5665 15.0562 24.4393 15.0087C24.3241 14.9612 24.1986 14.9422 24.0739 14.9533C23.9493 14.9644 23.8295 15.0052 23.725 15.0723C23.6394 15.1308 23.5724 15.2116 23.5318 15.3054C23.4912 15.3992 23.4786 15.5023 23.4954 15.6027C23.5408 15.7947 23.7304 15.9399 23.8866 16.0489C24.1016 16.1963 24.3472 16.2963 24.6062 16.342C24.8999 16.399 25.2216 16.434 25.4606 16.626C25.5033 16.6597 25.5648 16.6013 25.522 16.5663H25.5234Z" fill="black"/>
<path d="M11.6131 10.2186C11.0562 8.77891 11.0025 7.1906 11.4609 5.71595C11.9193 4.2413 12.8624 2.96842 14.1345 2.10742C14.2059 4.0933 14.2903 6.12111 14.363 8.10699" fill="#F1E8E3"/>
<path d="M14.7009 8.02185C14.8338 6.87275 14.9375 5.57145 15.3468 4.48794C15.7561 3.40442 16.4723 2.38914 17.5089 1.85394C17.5952 3.43084 17.5952 5.01117 17.5089 6.58807" fill="#F1E8E3"/>
<mask id="mask1_137_1075" style="mask-type:luminance" maskUnits="userSpaceOnUse" x="11" y="2" width="4" height="9">
<path d="M11.6556 10.2935C11.093 8.83523 11.0318 7.23114 11.4816 5.73422C11.9483 4.2642 12.8974 2.9947 14.1753 2.13129L14.3925 8.08122" fill="white"/>
</mask>
<g mask="url(#mask1_137_1075)">
<path d="M13.2517 8.76805C12.9192 6.70823 13.0334 4.60099 13.5866 2.58917L9.20264 3.35582L10.3801 11.3767L13.007 10.321L13.2582 8.76805" fill="#E0D4CB"/>
</g>
<path d="M22.2694 40.0295C22.4654 40.3355 22.9829 40.2309 23.1842 39.9249C23.3854 39.6189 23.5684 39.0474 23.5122 38.6891C23.192 36.6832 22.1427 34.9375 20.909 33.3277C21.5023 33.5893 22.2263 33.1669 22.4994 32.5758C22.7725 31.9848 22.7111 31.2996 22.6092 30.6562C22.3547 29.0652 21.8837 27.5165 21.2096 26.0532C21.4527 26.3605 21.9545 26.3409 22.2707 26.1108C22.587 25.8806 22.7582 25.5014 22.8915 25.1326C23.48 23.4366 23.5707 21.6074 23.1528 19.8615C21.7153 19.5162 20.4007 18.9723 18.9384 19.1553C17.8642 19.2861 16.7808 19.8785 15.7118 19.7111C14.8794 19.5803 14.2195 19.0677 13.7098 18.4034C13.2001 17.7391 12.8499 17.0382 12.8068 16.1974C12.7683 15.668 12.8523 15.1368 13.0525 14.6452C13.3491 13.9548 14.3593 12.9452 15.1839 13.1492C15.5668 13.2434 15.8569 13.5677 16.2489 13.5415C16.6135 13.5128 16.8135 13.2578 17.131 13.0786C18.3176 12.4091 19.7133 12.6589 21.0358 12.7582C22.3936 12.8602 23.9369 12.4719 24.6805 11.3316C25.0438 10.7758 25.1444 10.0095 24.7837 9.45247C24.4231 8.89541 23.5409 8.7045 23.0692 9.17003C23.6468 8.82481 24.2022 8.37627 24.4596 7.75382C24.7171 7.13138 24.5903 6.31542 24.0192 5.94797C23.5775 5.66421 23.0039 5.71781 22.4929 5.83681C21.1962 6.14018 20.0047 6.78645 19.0429 7.70807C19.2067 7.47451 19.3267 7.21306 19.397 6.93654C19.4305 6.79766 19.4254 6.6523 19.3823 6.51611C19.3393 6.37992 19.2599 6.25808 19.1527 6.16372C18.8038 5.90219 18.3072 6.09703 17.9204 6.29449L13.6471 8.55151C13.1243 8.82742 12.5899 9.11379 12.1952 9.55447C11.6725 10.1442 11.419 10.9825 10.7695 11.4336C10.4519 11.6546 10.0703 11.7592 9.73448 11.9501C9.39863 12.141 9.09022 12.4732 9.11113 12.8563C9.13204 13.2395 9.65738 13.5481 9.92789 13.2722C9.33459 13.4644 8.73084 13.6723 8.2434 14.0568C7.75596 14.4412 7.3979 15.0558 7.47761 15.6756C7.55733 16.2955 8.1846 16.8394 8.78442 16.6865C7.97681 17.0029 7.40313 17.7574 7.10387 18.5734C6.8046 19.3894 6.74318 20.2734 6.69483 21.1364C6.65224 21.5138 6.67568 21.8957 6.7641 22.2649C6.87256 22.6272 7.1313 22.992 7.50374 23.06C7.73243 23.1018 8.24079 22.8965 8.35971 22.5369V22.5474C8.06024 23.6162 7.95228 24.7296 8.04084 25.8361C8.06175 26.0872 8.10096 26.3592 8.27607 26.5384C8.45119 26.7175 8.80664 26.7371 8.92948 26.5135C8.7988 27.1674 8.64067 28.0056 8.73477 28.6633C8.82886 29.3211 9.19476 29.9788 9.80504 30.239C9.05754 30.8523 8.95954 31.8017 8.86675 32.7628C8.77397 33.7239 8.69033 34.689 9.30715 35.4318" fill="#F5EAE1"/>
<path d="M18.8896 16.8732C19.1049 16.7689 19.3049 16.6337 19.4835 16.4715C19.5536 16.4159 19.6115 16.3457 19.6534 16.2653C19.6747 16.2256 19.6859 16.1809 19.6859 16.1355C19.6859 16.09 19.6747 16.0453 19.6534 16.0056C19.6127 15.96 19.5621 15.925 19.5057 15.9036C19.4493 15.8822 19.3888 15.875 19.3292 15.8824C19.0299 15.8787 18.7318 15.9239 18.4461 16.0163C18.2921 16.0564 18.1505 16.1366 18.0351 16.2493C17.9782 16.3064 17.9387 16.3793 17.9214 16.4592C17.9041 16.5391 17.9098 16.6225 17.9378 16.6991C17.9918 16.8007 18.0799 16.8783 18.1855 16.9174C18.2988 16.9639 18.4206 16.984 18.5423 16.9764C18.664 16.9688 18.7826 16.9335 18.8896 16.8732Z" fill="#EDD1EC"/>
<path d="M8.81194 18.3299C8.72746 18.6483 8.66834 18.9727 8.63509 19.3001C8.60368 19.6228 8.60368 19.9476 8.63509 20.2703C8.64036 20.339 8.66434 20.405 8.70453 20.4615C8.72097 20.4849 8.74286 20.504 8.76838 20.5174C8.7939 20.5308 8.8223 20.538 8.85125 20.5385C8.91907 20.5252 8.98119 20.4921 9.02941 20.4435L9.22983 20.2921C9.49183 20.0893 9.77218 19.8955 10.0538 19.7095C9.81454 19.9456 9.56825 20.1732 9.31498 20.3922L9.12372 20.5565C9.05318 20.6282 8.96162 20.6766 8.86172 20.6951C8.80647 20.6982 8.75125 20.6882 8.70082 20.6659C8.65039 20.6435 8.60626 20.6095 8.57221 20.5667C8.5124 20.4884 8.47528 20.3958 8.46478 20.2985C8.43311 19.9615 8.44765 19.6218 8.50802 19.2885C8.56278 18.9565 8.66509 18.6338 8.81194 18.3299Z" fill="#E0D4CB"/>
<path d="M10.995 23.5684C10.967 23.8877 10.9765 24.2094 11.0233 24.5265C11.0468 24.6825 11.0807 24.8366 11.1249 24.9878C11.1574 25.1289 11.2315 25.2564 11.3371 25.3532C11.3933 25.3911 11.4569 25.4161 11.5235 25.4265C11.5901 25.4369 11.6581 25.4325 11.7229 25.4137C11.8703 25.3795 12.0132 25.3275 12.1486 25.2586C12.4286 25.12 12.6787 24.9256 12.8842 24.6868L12.897 24.7131L12.7299 24.6934C12.7852 24.6934 12.8417 24.6829 12.897 24.6803H12.9266L12.9099 24.7079C12.7364 24.9892 12.4974 25.2223 12.2142 25.3861C12.0703 25.469 11.9164 25.5322 11.7563 25.574C11.6722 25.5948 11.5853 25.601 11.4991 25.5924C11.4057 25.5824 11.3168 25.5465 11.2419 25.4886C11.1105 25.3687 11.0203 25.2088 10.9847 25.0325C10.8644 24.5518 10.8706 24.0471 11.0027 23.5697L10.995 23.5684Z" fill="#E0D4CB"/>
<path d="M10.6613 29.6518L10.6519 30.4557C10.6519 30.7237 10.6519 30.9917 10.6519 31.2489C10.6516 31.3668 10.6858 31.4823 10.7504 31.5812C10.7844 31.6237 10.8288 31.6569 10.8794 31.6775C10.93 31.6982 10.9851 31.7056 11.0394 31.6991C11.1622 31.6893 11.279 31.6426 11.3743 31.5651C11.4765 31.4793 11.5718 31.3857 11.6592 31.2851C11.5994 31.4083 11.5236 31.5231 11.4337 31.6268C11.3358 31.7378 11.2031 31.8128 11.057 31.8398C10.9776 31.8556 10.8954 31.8499 10.8189 31.8236C10.7425 31.7972 10.6745 31.751 10.6221 31.6898C10.5319 31.567 10.4819 31.4196 10.479 31.2677C10.4707 30.9966 10.4816 30.7253 10.5114 30.4557C10.5391 30.1841 10.5892 29.9152 10.6613 29.6518Z" fill="#E0D4CB"/>
<path d="M13.9404 28.304C14.0668 28.5703 14.1932 28.8526 14.2956 29.1322C14.3525 29.2654 14.4031 29.4198 14.4562 29.545C14.5093 29.6701 14.5901 29.6875 14.6976 29.6195C14.7522 29.5838 14.8009 29.5388 14.8417 29.4864C14.8885 29.4318 14.9327 29.3745 14.9681 29.3173C15.0543 29.2008 15.1333 29.0784 15.2045 28.9511C15.3478 28.6924 15.4623 28.4172 15.5458 28.1309C15.5227 28.4381 15.445 28.738 15.317 29.015C15.253 29.1548 15.1777 29.2884 15.092 29.4145C15.0503 29.4771 15.0035 29.537 14.9555 29.5969C14.904 29.6618 14.843 29.7176 14.7747 29.762C14.7352 29.7892 14.6908 29.8075 14.6442 29.8158C14.5977 29.824 14.55 29.822 14.5042 29.8099C14.46 29.7934 14.4197 29.7668 14.3863 29.732C14.3529 29.6973 14.3271 29.6553 14.3108 29.6089C14.2552 29.4544 14.2147 29.3199 14.1705 29.1721C14.0883 28.8899 14.0087 28.5983 13.9404 28.304Z" fill="#E0D4CB"/>
<path d="M16.4752 23.196C16.5419 23.5702 16.6594 23.934 16.8244 24.2776C16.903 24.4462 16.9975 24.6072 17.1066 24.7584C17.1556 24.8246 17.2206 24.8777 17.2957 24.9131C17.3265 24.9259 17.3604 24.9293 17.3932 24.9229C17.426 24.9164 17.456 24.9004 17.4795 24.877C17.5402 24.8136 17.5906 24.7415 17.6291 24.663C17.6777 24.5818 17.7223 24.498 17.7604 24.4155C17.8496 24.2479 17.9258 24.0752 17.9993 23.8998C18.141 23.5454 18.253 23.1803 18.334 22.8079C18.3174 23.1943 18.2463 23.5765 18.1227 23.9437C18.0619 24.1281 17.9891 24.3085 17.9048 24.4838C17.8628 24.5715 17.8168 24.6579 17.7735 24.7417C17.7277 24.8367 17.6665 24.9237 17.5923 24.9995C17.5455 25.0427 17.4873 25.0722 17.4243 25.0846C17.3601 25.0949 17.2943 25.0878 17.234 25.064C17.1316 25.0179 17.0437 24.9458 16.9793 24.8551C16.9218 24.7729 16.8705 24.6868 16.8257 24.5973C16.7797 24.5108 16.7389 24.4217 16.7036 24.3304C16.5556 23.9697 16.4781 23.5849 16.4752 23.196Z" fill="#E0D4CB"/>
<path d="M19.6016 30.7142C19.6411 30.8046 19.7113 30.8786 19.8002 30.9232C19.889 30.9678 19.9909 30.9803 20.0881 30.9585C20.1795 30.9318 20.2638 30.8853 20.3349 30.8225C20.406 30.7597 20.4621 30.6821 20.4993 30.5952C20.5874 30.414 20.6382 30.2172 20.6487 30.0164C20.66 29.8081 20.6373 29.5994 20.5812 29.3983C20.7021 29.5832 20.7715 29.7964 20.7822 30.0164C20.7955 30.2418 20.75 30.4667 20.65 30.6697C20.5965 30.774 20.5234 30.8671 20.4345 30.9442C20.3418 31.0242 20.2264 31.074 20.1039 31.0866C19.9836 31.0957 19.8637 31.0639 19.7642 30.9964C19.7164 30.9655 19.6767 30.9237 19.6485 30.8746C19.6202 30.8256 19.6041 30.7706 19.6016 30.7142Z" fill="#E0D4CB"/>
<path d="M21.1605 23.1128C21.1487 23.1791 21.15 23.2471 21.1642 23.3129C21.1784 23.3787 21.2053 23.4411 21.2433 23.4963C21.3122 23.6036 21.4144 23.6846 21.5336 23.7267C21.6538 23.7588 21.78 23.7595 21.9005 23.7285C22.0209 23.6975 22.1316 23.6359 22.2221 23.5496C22.4087 23.3664 22.5349 23.1292 22.5834 22.8704C22.6332 22.5989 22.6608 22.3236 22.6661 22.0475C22.7267 22.3254 22.7427 22.6114 22.7134 22.8944C22.6824 23.1925 22.5484 23.4698 22.3351 23.6774C22.2225 23.7788 22.0872 23.8505 21.9409 23.8865C21.7915 23.9221 21.6349 23.9095 21.4929 23.8506C21.3533 23.7888 21.2407 23.6775 21.1763 23.5376C21.1437 23.4721 21.1254 23.4002 21.1227 23.3269C21.1199 23.2536 21.1329 23.1806 21.1605 23.1128Z" fill="#E0D4CB"/>
</g>
</svg>
