<svg width="203" height="306" viewBox="0 0 203 306" fill="none" xmlns="http://www.w3.org/2000/svg">
<path d="M44.6984 117.255L44.6728 117.275L44.6448 117.292C38.9057 120.712 35.6142 121.941 32.6521 122.702C31.7376 122.936 30.8695 123.124 29.9797 123.316C27.9795 123.747 25.8705 124.202 22.8821 125.272C14.1743 128.387 5.2234 132.39 1.78902 140.662C0.94194 142.702 0.495544 145.672 0.499817 148.926C0.504074 152.172 0.956757 155.655 1.87332 158.702C2.79364 161.763 4.16248 164.321 5.95294 165.792C6.84077 166.521 7.82811 166.981 8.92165 167.112C10.0162 167.243 11.2515 167.049 12.64 166.417L13.1082 166.204L13.3079 166.678C14.8833 170.416 16.3867 172.865 18.4137 174.692C20.4422 176.521 23.0369 177.764 26.87 179.01C30.6288 180.231 35.06 180.268 39.5747 179.786C43.5198 179.365 47.4866 178.554 51.082 177.818C51.5988 177.712 52.1079 177.608 52.6082 177.507C53.3503 177.357 54.0944 177.204 54.8401 177.05C62.0419 175.57 69.4076 174.056 76.7992 174.678C81.7002 175.091 86.5847 176.441 91.3895 177.768C92.9484 178.199 94.4988 178.627 96.0387 179.021C102.363 180.636 108.551 181.677 114.679 180.06C124.764 177.388 131.642 168.16 137.022 159.02C141.364 151.603 145.279 143.456 144.265 135.125C143.059 125.299 135.204 117.392 126.555 112.198L126.554 112.197C101.698 97.1716 67.5087 99.2733 44.6984 117.255Z" fill="#8F76F5" stroke="black"/>
<path d="M114.416 128.729C111.725 131.315 109.183 134.144 106.237 135.728C103.29 137.312 99.9271 137.895 97.2769 136.487C94.6267 135.079 92.0975 132.235 89.8375 129.541C87.5909 126.662 85.6055 123.585 83.9049 120.349C84.3566 124.153 85.6185 127.815 87.6044 131.084C88.5827 132.752 89.718 134.321 90.9945 135.769C92.3228 137.335 93.9284 138.638 95.7298 139.614C97.7067 140.603 99.9484 140.921 102.12 140.521C104.161 140.143 106.081 139.275 107.716 137.989C110.678 135.509 112.98 132.327 114.416 128.729Z" fill="black"/>
<path d="M5.93782 160.594C6.25051 161.416 6.72377 162.167 7.32958 162.8C7.9169 163.479 8.63939 164.025 9.44986 164.402C10.3287 164.74 11.2817 164.83 12.2075 164.665C13.1562 164.503 14.0502 164.106 14.8091 163.509H13.9505C15.8008 164.821 17.8067 165.893 19.9212 166.7C22.027 167.459 24.2075 167.987 26.4251 168.276C30.8879 168.998 35.4545 168.693 39.784 167.383C44.1651 165.921 48.0177 163.179 50.8537 159.504C53.7124 155.872 55.2095 151.338 55.0813 146.701C55.0781 146.679 55.0672 146.658 55.0505 146.644C55.0337 146.629 55.0123 146.622 54.9903 146.622C54.9903 146.622 54.9252 146.622 54.9122 146.701C54.2352 151.04 52.3699 155.102 49.5269 158.427C46.7755 161.759 43.2682 164.372 39.3028 166.044C35.2975 167.863 30.848 168.444 26.5161 167.711C24.3814 167.242 22.3172 166.492 20.3765 165.479C18.4253 164.494 16.4741 163.47 14.666 162.301L14.1978 162.012L13.8205 162.354C13.2808 162.835 12.6337 163.178 11.9344 163.352C11.2314 163.542 10.4911 163.542 9.78808 163.352C9.05257 163.108 8.36551 162.734 7.75879 162.249C7.11686 161.754 6.55146 161.165 6.08088 160.502C6.06448 160.488 6.0437 160.481 6.02229 160.481C6.00088 160.481 5.9801 160.488 5.9637 160.502C5.94998 160.512 5.94014 160.527 5.93543 160.544C5.93073 160.56 5.93157 160.578 5.93782 160.594Z" fill="black"/>
<path d="M13.5603 162.725C13.5603 157.97 13.5603 153.093 13.5603 148.317" stroke="black" stroke-width="0.561311" stroke-miterlimit="10"/>
<path d="M13.4174 148.265C16.5145 145.66 21.227 145.829 25.1385 144.566C27.5148 143.811 31.7067 141.089 32.7213 138.875C33.8694 136.374 31.8802 133.288 29.1969 132.467C27.8179 132.146 26.3827 132.13 24.9966 132.421C23.6105 132.711 22.3088 133.301 21.187 134.147C20.1498 134.976 18.988 135.643 17.7427 136.127C17.1631 136.343 16.5213 136.339 15.9449 136.114C15.3685 135.89 14.8999 135.462 14.6323 134.916C14.3294 134.175 13.9633 133.46 13.5376 132.78C12.9369 131.985 11.2147 132.142 10.4003 132.78C9.58599 133.418 8.49138 134.199 8.47803 135.189C8.39793 140.919 9.90649 144.136 13.3507 148.317" fill="black"/>
<path d="M13.486 147.578C17.1286 144.663 22.0299 145.249 26.168 143.505C28.0882 142.704 29.8403 141.566 31.3373 140.149C32.09 139.519 32.6506 138.7 32.9578 137.781C33.178 136.751 32.9762 135.678 32.3953 134.789C31.7329 133.783 30.759 133.006 29.6136 132.571C28.4681 132.137 27.2101 132.066 26.0207 132.37C24.7536 132.632 23.5434 133.107 22.4451 133.774C21.4267 134.493 20.3719 135.162 19.2846 135.778C18.8864 136.034 18.4349 136.2 17.9624 136.266C17.49 136.331 17.0084 136.295 16.5525 136.158C16.0965 136.021 15.6775 135.787 15.3256 135.474C14.9736 135.161 14.6975 134.776 14.5172 134.347C14.0485 133.332 13.7405 132.213 12.3879 132.292C11.8433 132.372 11.3226 132.565 10.8608 132.856C10.3989 133.148 10.0064 133.532 9.70957 133.983C9.37867 134.64 9.2707 135.382 9.40142 136.103C9.40142 136.715 9.40156 137.404 9.54887 137.95C9.68273 139.125 9.95223 140.282 10.3524 141.398C11.2449 143.655 12.5315 145.745 14.1556 147.578C14.5038 147.994 13.8878 148.592 13.5396 148.176C12.0286 146.43 10.7797 144.486 9.83005 142.4C8.93633 140.228 8.48165 137.909 8.49086 135.57C8.43715 135.029 8.52151 134.484 8.7364 133.982C8.9513 133.481 9.29001 133.039 9.72281 132.695C10.4063 132.006 11.3154 131.568 12.2941 131.459C12.7112 131.397 13.1378 131.449 13.5259 131.61C13.914 131.771 14.2481 132.034 14.4904 132.37C15.2135 133.449 15.3876 135.18 16.9276 135.44C18.4677 135.7 19.7131 134.607 20.7845 133.866C21.8811 133.073 23.0841 132.429 24.3602 131.953C25.5158 131.477 26.7748 131.286 28.0249 131.397C29.2751 131.508 30.4774 131.918 31.5248 132.591C32.3841 133.178 33.0559 133.989 33.4632 134.93C33.8706 135.871 33.997 136.904 33.8281 137.912C33.3728 139.837 31.4712 141.294 29.9044 142.387C27.7474 143.866 25.2839 144.869 22.6862 145.327C19.74 145.899 16.5125 146.25 14.1154 148.176C13.6868 148.514 13.0709 147.929 13.4994 147.578H13.486Z" fill="black"/>
<path d="M153.018 83.905C158.604 69.4632 159.142 53.5312 154.544 38.7392C149.946 23.9472 140.486 11.1791 127.726 2.5426C127.009 22.4627 126.163 42.8033 125.433 62.7233" fill="#8F76F5"/>
<mask id="path-8-inside-1_137_3331" fill="white">
<path d="M122.043 61.8693C120.71 50.3428 119.671 37.2898 115.565 26.4212C111.46 15.5526 104.275 5.3685 93.8774 0C93.011 15.8176 93.011 31.6697 93.8774 47.4873"/>
</mask>
<path d="M122.043 61.8693C120.71 50.3428 119.671 37.2898 115.565 26.4212C111.46 15.5526 104.275 5.3685 93.8774 0C93.011 15.8176 93.011 31.6697 93.8774 47.4873" fill="#8F76F5"/>
<path d="M93.8774 0L92.8789 -0.0546942L92.9634 -1.59737L94.3362 -0.888546L93.8774 0ZM121.05 61.9842C119.709 50.3884 118.68 37.4966 114.63 26.7746L116.501 26.0678C120.662 37.083 121.712 50.2972 123.037 61.7544L121.05 61.9842ZM114.63 26.7746C110.579 16.0511 103.526 6.10755 93.4186 0.888546L94.3362 -0.888546C105.023 4.62944 112.34 15.0542 116.501 26.0678L114.63 26.7746ZM94.8759 0.0546942C94.0115 15.8359 94.0115 31.6514 94.8759 47.4326L92.8789 47.542C92.0105 31.6879 92.0105 15.7994 92.8789 -0.0546942L94.8759 0.0546942Z" fill="black" mask="url(#path-8-inside-1_137_3331)"/>
<mask id="mask0_137_3331" style="mask-type:luminance" maskUnits="userSpaceOnUse" x="125" y="2" width="33" height="83">
<path d="M152.591 84.6558C158.235 70.028 158.849 53.9377 154.336 38.9224C149.656 24.1768 140.135 11.4426 127.316 2.78186L125.138 62.4647" fill="white"/>
</mask>
<g mask="url(#mask0_137_3331)">
<mask id="path-11-inside-2_137_3331" fill="white">
<path d="M136.581 69.3544C139.916 48.6926 138.771 27.5552 133.221 7.375L177.196 15.0652L165.386 95.5217L139.035 84.9314L136.515 69.3544"/>
</mask>
<path d="M136.581 69.3544C139.916 48.6926 138.771 27.5552 133.221 7.375L177.196 15.0652L165.386 95.5217L139.035 84.9314L136.515 69.3544" fill="black"/>
<path d="M133.221 7.375L132.257 7.64014L131.839 6.11801L133.394 6.38995L133.221 7.375ZM177.196 15.0652L177.369 14.0801L178.327 14.2477L178.186 15.2104L177.196 15.0652ZM165.386 95.5217L166.375 95.6669L166.191 96.923L165.013 96.4496L165.386 95.5217ZM139.035 84.9314L138.662 85.8593L138.138 85.6487L138.048 85.0911L139.035 84.9314ZM135.594 69.195C138.906 48.6748 137.768 27.6822 132.257 7.64014L134.186 7.10986C139.773 27.4283 140.926 48.7104 137.568 69.5138L135.594 69.195ZM133.394 6.38995L177.369 14.0801L177.024 16.0502L133.049 8.36005L133.394 6.38995ZM178.186 15.2104L166.375 95.6669L164.396 95.3765L176.207 14.9199L178.186 15.2104ZM165.013 96.4496L138.662 85.8593L139.408 84.0036L165.759 94.5938L165.013 96.4496ZM138.048 85.0911L135.528 69.5141L137.502 69.1947L140.022 84.7718L138.048 85.0911Z" fill="black" mask="url(#path-11-inside-2_137_3331)"/>
</g>
<mask id="path-13-inside-3_137_3331" fill="white">
<path d="M46.125 382.933C44.1588 386.002 38.9678 384.953 36.9491 381.884C34.9305 378.814 33.0952 373.082 33.6589 369.488C36.8705 349.367 47.3965 331.856 59.7708 315.709C53.8196 318.332 46.5576 314.095 43.8179 308.166C41.0783 302.238 41.6943 295.364 42.7167 288.911C45.27 272.952 49.9937 257.417 56.756 242.739C54.3178 245.822 49.2842 245.625 46.1119 243.316C42.9397 241.008 41.2225 237.204 39.8854 233.505C33.9817 216.493 33.0719 198.144 37.2637 180.631C51.683 177.168 64.8701 171.711 79.5384 173.548C90.3136 174.859 101.18 180.801 111.903 179.122C120.253 177.811 126.873 172.669 131.985 166.005C137.098 159.342 140.611 152.311 141.043 143.877C141.43 138.566 140.586 133.238 138.579 128.307C135.603 121.382 125.47 111.255 117.199 113.301C113.358 114.246 110.448 117.499 106.516 117.236C102.858 116.948 100.853 114.39 97.6674 112.593C85.7649 105.877 71.7651 108.382 58.4993 109.379C44.8797 110.402 29.3986 106.507 21.9399 95.0689C18.2957 89.4942 17.2863 81.8075 20.9043 76.2197C24.5222 70.6319 33.3705 68.717 38.1027 73.3866C32.3088 69.9237 26.7376 65.4245 24.1553 59.1808C21.5729 52.9372 22.8444 44.7525 28.5728 41.0666C33.0035 38.2202 38.758 38.7579 43.8834 39.9515C56.8904 42.9946 68.8421 49.4772 78.4897 58.7219C76.8466 56.3791 75.6429 53.7566 74.9374 50.9828C74.602 49.5897 74.6531 48.1317 75.0851 46.7656C75.517 45.3994 76.3135 44.1772 77.3886 43.2308C80.8886 40.6074 85.8697 42.5618 89.7498 44.5425L132.615 67.1823C137.858 69.95 143.219 72.8225 147.178 77.2429C152.421 83.1586 154.964 91.5667 161.479 96.0921C164.665 98.3088 168.492 99.3581 171.861 101.273C175.23 103.188 178.324 106.52 178.114 110.363C177.904 114.206 172.635 117.302 169.921 114.535C175.872 116.463 181.928 118.548 186.818 122.405C191.707 126.261 195.299 132.426 194.499 138.643C193.7 144.861 187.408 150.317 181.391 148.783C189.492 151.957 195.247 159.525 198.248 167.71C201.25 175.895 201.866 184.762 202.351 193.42C202.779 197.205 202.543 201.035 201.657 204.74C200.569 208.373 197.973 212.032 194.237 212.715C191.943 213.134 186.844 211.075 185.651 207.468V207.573C188.655 218.294 189.738 229.463 188.85 240.562C188.64 243.08 188.247 245.809 186.49 247.606C184.734 249.403 181.168 249.6 179.936 247.357C181.247 253.915 182.833 262.323 181.889 268.921C180.945 275.519 177.275 282.116 171.153 284.727C178.651 290.878 179.634 300.401 180.565 310.042C181.496 319.683 182.335 329.364 176.148 336.814"/>
</mask>
<path d="M46.125 382.933C44.1588 386.002 38.9678 384.953 36.9491 381.884C34.9305 378.814 33.0952 373.082 33.6589 369.488C36.8705 349.367 47.3965 331.856 59.7708 315.709C53.8196 318.332 46.5576 314.095 43.8179 308.166C41.0783 302.238 41.6943 295.364 42.7167 288.911C45.27 272.952 49.9937 257.417 56.756 242.739C54.3178 245.822 49.2842 245.625 46.1119 243.316C42.9397 241.008 41.2225 237.204 39.8854 233.505C33.9817 216.493 33.0719 198.144 37.2637 180.631C51.683 177.168 64.8701 171.711 79.5384 173.548C90.3136 174.859 101.18 180.801 111.903 179.122C120.253 177.811 126.873 172.669 131.985 166.005C137.098 159.342 140.611 152.311 141.043 143.877C141.43 138.566 140.586 133.238 138.579 128.307C135.603 121.382 125.47 111.255 117.199 113.301C113.358 114.246 110.448 117.499 106.516 117.236C102.858 116.948 100.853 114.39 97.6674 112.593C85.7649 105.877 71.7651 108.382 58.4993 109.379C44.8797 110.402 29.3986 106.507 21.9399 95.0689C18.2957 89.4942 17.2863 81.8075 20.9043 76.2197C24.5222 70.6319 33.3705 68.717 38.1027 73.3866C32.3088 69.9237 26.7376 65.4245 24.1553 59.1808C21.5729 52.9372 22.8444 44.7525 28.5728 41.0666C33.0035 38.2202 38.758 38.7579 43.8834 39.9515C56.8904 42.9946 68.8421 49.4772 78.4897 58.7219C76.8466 56.3791 75.6429 53.7566 74.9374 50.9828C74.602 49.5897 74.6531 48.1317 75.0851 46.7656C75.517 45.3994 76.3135 44.1772 77.3886 43.2308C80.8886 40.6074 85.8697 42.5618 89.7498 44.5425L132.615 67.1823C137.858 69.95 143.219 72.8225 147.178 77.2429C152.421 83.1586 154.964 91.5667 161.479 96.0921C164.665 98.3088 168.492 99.3581 171.861 101.273C175.23 103.188 178.324 106.52 178.114 110.363C177.904 114.206 172.635 117.302 169.921 114.535C175.872 116.463 181.928 118.548 186.818 122.405C191.707 126.261 195.299 132.426 194.499 138.643C193.7 144.861 187.408 150.317 181.391 148.783C189.492 151.957 195.247 159.525 198.248 167.71C201.25 175.895 201.866 184.762 202.351 193.42C202.779 197.205 202.543 201.035 201.657 204.74C200.569 208.373 197.973 212.032 194.237 212.715C191.943 213.134 186.844 211.075 185.651 207.468V207.573C188.655 218.294 189.738 229.463 188.85 240.562C188.64 243.08 188.247 245.809 186.49 247.606C184.734 249.403 181.168 249.6 179.936 247.357C181.247 253.915 182.833 262.323 181.889 268.921C180.945 275.519 177.275 282.116 171.153 284.727C178.651 290.878 179.634 300.401 180.565 310.042C181.496 319.683 182.335 329.364 176.148 336.814" fill="#B19FF5"/>
<path d="M33.6589 369.488L32.671 369.333L32.6714 369.33L33.6589 369.488ZM59.7708 315.709L59.3674 314.794L60.5645 316.317L59.7708 315.709ZM42.7167 288.911L41.729 288.754L41.7293 288.753L42.7167 288.911ZM56.756 242.739L55.9717 242.119L57.6642 243.158L56.756 242.739ZM39.8854 233.505L38.9449 233.845L38.9407 233.833L39.8854 233.505ZM37.2637 180.631L36.2912 180.398L36.4339 179.801L37.0302 179.658L37.2637 180.631ZM79.5384 173.548L79.4176 174.54L79.4142 174.54L79.5384 173.548ZM111.903 179.122L112.058 180.11L112.058 180.11L111.903 179.122ZM141.043 143.877L140.044 143.826L140.045 143.815L140.046 143.804L141.043 143.877ZM138.579 128.307L139.498 127.913L139.501 127.921L139.505 127.93L138.579 128.307ZM117.199 113.301L117.439 114.272L117.438 114.272L117.199 113.301ZM106.516 117.236L106.449 118.234L106.437 118.233L106.516 117.236ZM97.6674 112.593L97.176 113.464L97.1759 113.464L97.6674 112.593ZM58.4993 109.379L58.5743 110.377L58.5742 110.377L58.4993 109.379ZM21.9399 95.0689L22.7769 94.5217L22.7775 94.5227L21.9399 95.0689ZM38.1027 73.3866L38.8051 72.6748L37.5897 74.2449L38.1027 73.3866ZM28.5728 41.0666L28.0317 40.2257L28.0323 40.2253L28.5728 41.0666ZM43.8834 39.9515L44.1102 38.9776L44.1112 38.9778L43.8834 39.9515ZM78.4897 58.7219L79.3084 58.1478L77.7978 59.444L78.4897 58.7219ZM74.9374 50.9828L73.9682 51.2293L73.9651 51.2168L74.9374 50.9828ZM77.3886 43.2308L76.7279 42.4802L76.7574 42.4542L76.7889 42.4306L77.3886 43.2308ZM89.7498 44.5425L90.2045 43.6517L90.2169 43.6582L89.7498 44.5425ZM132.615 67.1823L132.148 68.0667L132.147 68.0665L132.615 67.1823ZM147.178 77.2429L147.923 76.5757L147.926 76.5796L147.178 77.2429ZM161.479 96.0921L162.05 95.2707L162.051 95.2713L161.479 96.0921ZM169.921 114.535L169.207 115.235L170.229 113.583L169.921 114.535ZM181.391 148.783L181.026 149.714L181.638 147.814L181.391 148.783ZM202.351 193.42L201.358 193.532L201.354 193.504L201.353 193.476L202.351 193.42ZM201.657 204.74L202.629 204.973L202.623 205L202.615 205.027L201.657 204.74ZM194.237 212.715L194.057 211.731L194.058 211.731L194.237 212.715ZM185.651 207.468H184.651L186.601 207.154L185.651 207.468ZM185.651 207.573L184.688 207.843L184.651 207.71V207.573H185.651ZM188.85 240.562L189.847 240.642L189.846 240.645L188.85 240.562ZM179.936 247.357L178.955 247.553L180.812 246.875L179.936 247.357ZM171.153 284.727L170.519 285.5L169.244 284.454L170.761 283.807L171.153 284.727ZM46.9671 383.472C45.7054 385.442 43.4576 385.999 41.4122 385.7C39.3716 385.402 37.2998 384.236 36.1136 382.433L37.7846 381.334C38.6172 382.6 40.1502 383.494 41.7013 383.721C43.2476 383.947 44.5784 383.493 45.283 382.394L46.9671 383.472ZM36.1136 382.433C35.0359 380.794 34.0351 378.495 33.3734 376.155C32.7157 373.829 32.3569 371.336 32.671 369.333L34.6468 369.643C34.3973 371.234 34.6742 373.405 35.2979 375.61C35.9175 377.802 36.8436 379.903 37.7846 381.334L36.1136 382.433ZM32.6714 369.33C35.922 348.965 46.5669 331.294 58.9771 315.1L60.5645 316.317C48.226 332.417 37.819 349.769 34.6464 369.646L32.6714 369.33ZM60.1742 316.624C56.8601 318.085 53.2373 317.609 50.1376 316.036C47.0417 314.466 44.3774 311.761 42.9102 308.586L44.7257 307.747C45.9982 310.501 48.3346 312.879 51.0425 314.253C53.7465 315.625 56.7303 315.956 59.3674 314.794L60.1742 316.624ZM42.9102 308.586C40.0315 302.356 40.7066 295.208 41.729 288.754L43.7044 289.067C42.6819 295.521 42.125 302.119 44.7257 307.747L42.9102 308.586ZM41.7293 288.753C44.297 272.704 49.0473 257.081 55.8477 242.321L57.6642 243.158C50.9401 257.753 46.2431 273.2 43.7042 289.069L41.7293 288.753ZM57.5403 243.36C56.0938 245.188 53.9133 245.996 51.7335 246.049C49.5586 246.102 47.2909 245.411 45.5235 244.125L46.7003 242.508C48.1051 243.53 49.9404 244.092 51.685 244.05C53.4246 244.008 54.98 243.373 55.9717 242.119L57.5403 243.36ZM45.5235 244.125C42.0839 241.622 40.2846 237.551 38.945 233.845L40.8259 233.165C42.1604 236.857 43.7955 240.394 46.7003 242.508L45.5235 244.125ZM38.9407 233.833C32.9744 216.64 32.0549 198.097 36.2912 180.398L38.2363 180.863C34.0889 198.191 34.989 216.345 40.8302 233.177L38.9407 233.833ZM37.0302 179.658C40.6143 178.797 44.1234 177.812 47.622 176.841C51.1139 175.872 54.5941 174.916 58.0872 174.126C65.0772 172.546 72.1679 171.617 79.6627 172.555L79.4142 174.54C72.2407 173.642 65.4036 174.523 58.5282 176.077C55.0885 176.855 51.6516 177.798 48.1571 178.768C44.6693 179.737 41.1228 180.732 37.4973 181.603L37.0302 179.658ZM79.6593 172.555C85.1391 173.222 90.6798 175.073 95.9979 176.49C101.381 177.924 106.606 178.939 111.748 178.134L112.058 180.11C106.477 180.984 100.908 179.868 95.483 178.423C89.9932 176.96 84.7129 175.185 79.4176 174.54L79.6593 172.555ZM111.748 178.134C119.761 176.876 126.176 171.935 131.192 165.397L132.779 166.614C127.57 173.403 120.745 178.746 112.058 180.11L111.748 178.134ZM131.192 165.397C136.231 158.829 139.626 151.989 140.044 143.826L142.042 143.928C141.595 152.634 137.964 159.855 132.779 166.614L131.192 165.397ZM140.046 143.804C140.421 138.647 139.602 133.473 137.653 128.684L139.505 127.93C141.571 133.004 142.438 138.486 142.04 143.95L140.046 143.804ZM137.66 128.702C136.247 125.413 133.082 121.276 129.251 118.222C125.389 115.141 121.114 113.363 117.439 114.272L116.959 112.331C121.555 111.193 126.483 113.455 130.498 116.658C134.546 119.886 137.935 124.276 139.498 127.913L137.66 128.702ZM117.438 114.272C115.673 114.706 114.146 115.661 112.359 116.605C110.638 117.515 108.713 118.385 106.449 118.234L106.582 116.239C108.25 116.35 109.747 115.724 111.424 114.837C113.036 113.985 114.884 112.841 116.96 112.33L117.438 114.272ZM106.437 118.233C104.369 118.07 102.787 117.26 101.362 116.314C100.663 115.85 99.9667 115.329 99.2967 114.849C98.6127 114.359 97.9248 113.887 97.176 113.464L98.1587 111.722C99.0026 112.198 99.7599 112.72 100.462 113.224C101.178 113.737 101.809 114.21 102.467 114.647C103.755 115.501 105.005 116.114 106.594 116.239L106.437 118.233ZM97.1759 113.464C91.4243 110.219 85.1343 109.181 78.5813 109.094C71.9938 109.006 65.2799 109.873 58.5743 110.377L58.4244 108.382C64.9845 107.889 71.9034 107.005 78.6079 107.094C85.3468 107.184 92.0079 108.252 98.1588 111.722L97.1759 113.464ZM58.5742 110.377C44.7991 111.411 28.8528 107.501 21.1022 95.6151L22.7775 94.5227C29.9444 105.513 44.9602 109.394 58.4244 108.382L58.5742 110.377ZM21.1028 95.6161C17.311 89.8154 16.1711 81.69 20.0648 75.6762L21.7437 76.7632C18.4016 81.925 19.2805 89.173 22.7769 94.5217L21.1028 95.6161ZM20.0648 75.6762C22.0427 72.6215 25.4155 70.6092 28.9063 69.9728C32.4004 69.3359 36.1532 70.0579 38.8051 72.6748L37.4003 74.0984C35.3201 72.0456 32.2826 71.3903 29.265 71.9404C26.2441 72.4911 23.3838 74.2301 21.7437 76.7632L20.0648 75.6762ZM37.5897 74.2449C31.7411 70.7495 25.9392 66.1106 23.2312 59.563L25.0794 58.7986C27.536 64.7384 32.8764 69.098 38.6157 72.5282L37.5897 74.2449ZM23.2312 59.563C20.5273 53.0254 21.7721 44.2533 28.0317 40.2257L29.1139 41.9076C23.9167 45.2516 22.6186 52.8489 25.0794 58.7986L23.2312 59.563ZM28.0323 40.2253C32.835 37.1399 38.9579 37.7777 44.1102 38.9776L43.6566 40.9255C38.5581 39.7381 33.1719 39.3006 29.1133 41.908L28.0323 40.2253ZM44.1112 38.9778C57.2927 42.0617 69.4046 48.6313 79.1816 57.9999L77.7978 59.444C68.2795 50.3232 56.4881 43.9275 43.6556 40.9253L44.1112 38.9778ZM77.671 59.2961C75.9583 56.854 74.7036 54.1205 73.9682 51.2293L75.9065 50.7362C76.5822 53.3927 77.7349 55.9041 79.3084 58.1478L77.671 59.2961ZM73.9651 51.2168C73.5872 49.6469 73.6448 48.0037 74.1316 46.4641L76.0385 47.0671C75.6614 48.2597 75.6168 49.5326 75.9096 50.7487L73.9651 51.2168ZM74.1316 46.4641C74.6184 44.9245 75.5161 43.5469 76.7279 42.4802L78.0494 43.9814C77.111 44.8075 76.4157 45.8744 76.0385 47.0671L74.1316 46.4641ZM76.7889 42.4306C78.846 40.8887 81.2897 40.7401 83.6118 41.1774C85.9249 41.613 88.2441 42.6511 90.2045 43.6518L89.2952 45.4331C87.3754 44.4532 85.264 43.5237 83.2416 43.1428C81.2281 42.7636 79.4312 42.9495 77.9884 44.0309L76.7889 42.4306ZM90.2169 43.6582L133.082 66.2981L132.147 68.0665L89.2828 45.4267L90.2169 43.6582ZM133.081 66.2979C138.3 69.0524 143.825 72.0005 147.923 76.5757L146.433 77.91C142.613 73.6445 137.416 70.8476 132.148 68.0667L133.081 66.2979ZM147.926 76.5796C150.623 79.6222 152.639 83.3235 154.702 86.6632C156.799 90.0557 158.974 93.1339 162.05 95.2707L160.909 96.9134C157.47 94.5248 155.116 91.1363 153.001 87.7146C150.854 84.24 148.976 80.7793 146.43 77.9062L147.926 76.5796ZM162.051 95.2713C163.557 96.3194 165.232 97.1032 167.003 97.8799C168.749 98.6455 170.613 99.4135 172.355 100.404L171.367 102.143C169.74 101.218 168.006 100.504 166.2 99.7116C164.419 98.9307 162.587 98.0815 160.908 96.9129L162.051 95.2713ZM172.355 100.404C175.833 102.381 179.354 105.996 179.112 110.418L177.115 110.309C177.293 107.044 174.627 103.996 171.367 102.143L172.355 100.404ZM179.112 110.418C178.984 112.771 177.338 114.778 175.431 115.808C173.523 116.838 170.991 117.054 169.207 115.235L170.635 113.834C171.565 114.783 173.025 114.834 174.481 114.048C175.94 113.261 177.034 111.799 177.115 110.309L179.112 110.418ZM170.229 113.583C176.165 115.506 182.388 117.637 187.437 121.62L186.199 123.19C181.469 119.46 175.58 117.419 169.613 115.486L170.229 113.583ZM187.437 121.62C192.501 125.614 196.35 132.094 195.491 138.771L193.508 138.516C194.248 132.758 190.913 126.908 186.199 123.19L187.437 121.62ZM195.491 138.771C195.055 142.161 193.134 145.305 190.528 147.399C187.92 149.496 184.527 150.615 181.144 149.752L181.638 147.814C184.272 148.485 187.033 147.643 189.275 145.841C191.52 144.036 193.144 141.343 193.508 138.516L195.491 138.771ZM181.756 147.852C190.209 151.164 196.124 159.013 199.187 167.366L197.31 168.055C194.369 160.038 188.775 152.75 181.026 149.714L181.756 147.852ZM199.187 167.366C202.247 175.71 202.866 184.72 203.35 193.364L201.353 193.476C200.867 184.804 200.253 176.08 197.31 168.055L199.187 167.366ZM203.345 193.307C203.785 197.208 203.543 201.155 202.629 204.973L200.684 204.507C201.544 200.915 201.772 197.201 201.358 193.532L203.345 193.307ZM202.615 205.027C201.483 208.805 198.701 212.916 194.417 213.698L194.058 211.731C197.246 211.149 199.654 207.941 200.699 204.453L202.615 205.027ZM194.417 213.698C192.957 213.965 190.869 213.449 189.06 212.483C187.23 211.506 185.41 209.924 184.702 207.782L186.601 207.154C187.085 208.619 188.412 209.87 190.002 210.719C191.615 211.58 193.224 211.883 194.057 211.731L194.417 213.698ZM186.651 207.468V207.573H184.651V207.468H186.651ZM186.614 207.303C189.65 218.138 190.744 229.425 189.847 240.642L187.853 240.482C188.732 229.501 187.66 218.45 184.688 207.843L186.614 207.303ZM189.846 240.645C189.639 243.132 189.244 246.219 187.205 248.305L185.775 246.907C187.25 245.398 187.641 243.028 187.853 240.479L189.846 240.645ZM187.205 248.305C186.117 249.418 184.516 250.004 183.011 249.996C181.5 249.988 179.9 249.368 179.059 247.838L180.812 246.875C181.204 247.588 182.003 247.991 183.022 247.996C184.047 248.001 185.107 247.59 185.775 246.907L187.205 248.305ZM180.917 247.161C182.22 253.68 183.852 262.264 182.879 269.062L180.899 268.779C181.814 262.382 180.274 254.15 178.955 247.553L180.917 247.161ZM182.879 269.062C181.905 275.871 178.097 282.853 171.546 285.647L170.761 283.807C176.453 281.38 179.985 275.166 180.899 268.779L182.879 269.062ZM171.788 283.954C179.659 290.412 180.638 300.395 181.56 309.946L179.57 310.138C178.63 300.407 177.643 291.345 170.519 285.5L171.788 283.954ZM181.56 309.946C182.482 319.497 183.414 329.629 176.917 337.453L175.378 336.175C181.256 329.098 180.509 319.869 179.57 310.138L181.56 309.946Z" fill="black" mask="url(#path-13-inside-3_137_3331)"/>
<path d="M80.2455 150.206L80.2595 150.213L80.273 150.22C81.2813 150.789 82.3976 151.12 83.5425 151.192C84.6874 151.264 85.8339 151.074 86.9008 150.637L86.9089 150.633L86.9172 150.63C87.8482 150.286 88.6306 149.604 89.1169 148.706C89.355 148.035 89.4018 147.307 89.2509 146.609C89.0977 145.901 88.7483 145.256 88.2476 144.753C87.1513 143.684 85.8093 142.924 84.3503 142.545L84.3361 142.541L84.3221 142.537C81.5081 141.626 78.5725 141.181 75.6242 141.218L75.5898 141.218L75.5556 141.214C75.0389 141.149 74.5145 141.212 74.0253 141.398C73.5543 141.577 73.128 141.865 72.7796 142.242C72.6224 142.554 72.5396 142.902 72.5396 143.256C72.5396 143.63 72.6318 143.997 72.8066 144.322L72.8066 144.322L72.8094 144.327C73.1977 145.072 73.7336 145.722 74.3809 146.235L74.3939 146.245L74.4061 146.257C76.1631 147.851 78.129 149.181 80.2455 150.206Z" fill="#B19FF5" stroke="black"/>
<path d="M181.114 165.267C181.962 168.462 182.555 171.715 182.888 174.999C183.204 178.236 183.204 181.495 182.888 184.732C182.836 185.42 182.595 186.083 182.192 186.65C182.027 186.884 181.807 187.076 181.551 187.21C181.295 187.344 181.011 187.417 180.72 187.422C180.04 187.289 179.417 186.957 178.933 186.469L176.923 184.95C174.295 182.916 171.483 180.972 168.657 179.106C171.058 181.475 173.528 183.757 176.069 185.954L177.987 187.602C178.695 188.322 179.613 188.807 180.615 188.992C181.169 189.024 181.723 188.924 182.229 188.699C182.735 188.475 183.178 188.134 183.519 187.705C184.119 186.92 184.492 185.99 184.597 185.015C184.915 181.634 184.769 178.226 184.163 174.883C183.614 171.554 182.588 168.316 181.114 165.267Z" fill="black"/>
<path d="M159.217 217.814C159.498 221.018 159.403 224.244 158.933 227.425C158.698 228.989 158.357 230.535 157.914 232.052C157.588 233.467 156.845 234.746 155.786 235.717C155.221 236.097 154.583 236.348 153.916 236.452C153.248 236.557 152.566 236.513 151.916 236.324C150.437 235.981 149.003 235.459 147.646 234.768C144.837 233.378 142.328 231.428 140.267 229.033L140.138 229.297L141.815 229.099C141.26 229.099 140.693 228.993 140.138 228.967H139.842L140.009 229.244C141.749 232.066 144.147 234.404 146.988 236.047C148.431 236.879 149.975 237.513 151.58 237.932C152.424 238.141 153.296 238.203 154.16 238.116C155.097 238.016 155.99 237.657 156.74 237.075C158.059 235.873 158.963 234.269 159.32 232.5C160.528 227.678 160.465 222.616 159.14 217.827L159.217 217.814Z" fill="black"/>
<path d="M162.564 278.836L162.659 286.9C162.659 289.588 162.659 292.276 162.659 294.857C162.662 296.039 162.318 297.197 161.67 298.19C161.329 298.616 160.884 298.949 160.376 299.156C159.869 299.363 159.316 299.437 158.771 299.372C157.54 299.274 156.368 298.805 155.412 298.028C154.387 297.168 153.431 296.229 152.554 295.22C153.154 296.455 153.915 297.607 154.816 298.647C155.798 299.76 157.13 300.513 158.595 300.784C159.392 300.942 160.216 300.885 160.983 300.621C161.75 300.356 162.431 299.893 162.957 299.279C163.863 298.047 164.364 296.569 164.393 295.045C164.476 292.326 164.367 289.604 164.068 286.9C163.79 284.175 163.287 281.478 162.564 278.836Z" fill="black"/>
<path d="M129.671 265.316C128.403 267.988 127.135 270.819 126.108 273.624C125.538 274.96 125.03 276.509 124.498 277.764C123.965 279.02 123.154 279.194 122.076 278.512C121.528 278.153 121.04 277.702 120.631 277.177C120.162 276.629 119.718 276.055 119.363 275.481C118.498 274.312 117.706 273.085 116.992 271.808C115.554 269.213 114.406 266.452 113.568 263.58C113.8 266.662 114.579 269.67 115.863 272.449C116.505 273.85 117.26 275.191 118.12 276.456C118.539 277.083 119.008 277.684 119.49 278.285C120.006 278.936 120.618 279.496 121.303 279.942C121.699 280.214 122.145 280.398 122.612 280.481C123.079 280.563 123.557 280.543 124.016 280.422C124.46 280.256 124.863 279.989 125.199 279.641C125.534 279.292 125.792 278.871 125.956 278.405C126.514 276.856 126.92 275.507 127.363 274.025C128.188 271.193 128.986 268.268 129.671 265.316Z" fill="black"/>
<path d="M104.246 214.079C103.577 217.832 102.399 221.481 100.743 224.928C99.9549 226.619 99.0072 228.234 97.912 229.751C97.4206 230.415 96.769 230.948 96.0158 231.303C95.7069 231.431 95.3661 231.465 95.0374 231.401C94.7086 231.336 94.4072 231.176 94.1723 230.941C93.5632 230.305 93.0571 229.581 92.6713 228.795C92.1841 227.98 91.7364 227.139 91.3545 226.312C90.4591 224.63 89.6953 222.898 88.9579 221.139C87.5361 217.584 86.4131 213.921 85.6001 210.186C85.767 214.062 86.4806 217.896 87.7202 221.579C88.3298 223.429 89.0598 225.239 89.9059 226.997C90.3273 227.876 90.7882 228.743 91.2227 229.583C91.6819 230.536 92.2956 231.41 93.0399 232.169C93.5095 232.603 94.0934 232.899 94.7254 233.023C95.3691 233.127 96.0294 233.055 96.6346 232.816C97.6614 232.354 98.5436 231.631 99.1892 230.721C99.7655 229.897 100.28 229.032 100.73 228.135C101.191 227.267 101.6 226.373 101.954 225.458C103.44 221.84 104.217 217.979 104.246 214.079Z" fill="black"/>
<path d="M72.887 289.493C72.4908 290.4 71.7861 291.142 70.8948 291.589C70.0035 292.037 68.9818 292.162 68.0067 291.944C67.0895 291.675 66.2439 291.209 65.5307 290.579C64.8175 289.949 64.2546 289.171 63.8824 288.3C62.9981 286.481 62.4886 284.508 62.3838 282.493C62.2697 280.404 62.4981 278.31 63.0601 276.293C61.8471 278.148 61.1517 280.287 61.0443 282.493C60.9108 284.754 61.3675 287.011 62.3705 289.047C62.9066 290.092 63.6403 291.027 64.5322 291.8C65.4617 292.603 66.6198 293.101 67.8476 293.228C69.0548 293.32 70.2574 293.001 71.2558 292.324C71.735 292.013 72.1328 291.594 72.4164 291.102C72.6999 290.61 72.8612 290.058 72.887 289.493Z" fill="black"/>
<path d="M57.2482 213.245C57.3667 213.91 57.3543 214.592 57.2119 215.252C57.0694 215.912 56.7996 216.537 56.418 217.091C55.7264 218.167 54.7021 218.98 53.5056 219.402C52.3004 219.725 51.0341 219.731 49.826 219.42C48.6178 219.109 47.5076 218.492 46.6001 217.626C44.7279 215.788 43.4621 213.409 42.976 210.813C42.4765 208.089 42.1988 205.329 42.1457 202.558C41.5379 205.346 41.3777 208.214 41.6713 211.054C41.9827 214.044 43.3271 216.826 45.4667 218.908C46.5954 219.925 47.953 220.645 49.4203 221.005C50.9187 221.362 52.4898 221.236 53.9142 220.645C55.3147 220.025 56.4439 218.909 57.0901 217.506C57.4172 216.849 57.6007 216.128 57.628 215.392C57.6553 214.657 57.5258 213.925 57.2482 213.245Z" fill="black"/>
</svg>
