<svg width="207" height="328" viewBox="0 0 207 328" fill="none" xmlns="http://www.w3.org/2000/svg">
<path d="M161.454 119.046C138.05 100.597 102.991 98.4423 77.4895 113.859C68.628 119.179 60.4616 127.347 59.2052 137.589C58.1493 146.261 62.2258 154.694 66.6498 162.25C72.1298 171.561 79.2271 181.138 89.7192 183.918C102.47 187.283 115.368 179.555 128.48 178.451C136.7 177.759 144.893 179.688 152.979 181.324C161.066 182.96 171.598 185.394 179.457 182.84C187.316 180.286 190.35 177.666 193.585 169.991C205.454 175.391 208.915 151.755 205.32 143.095C201.725 134.436 192.382 130.299 183.534 127.134C174.686 123.968 173.082 125.977 161.454 119.046Z" fill="#EDD4C2"/>
<path d="M90.1177 131.135C92.8585 133.769 95.4486 136.652 98.4498 138.265C101.451 139.879 104.877 140.472 107.577 139.038C110.277 137.604 112.853 134.707 115.155 131.963C117.444 129.029 119.466 125.895 121.199 122.598C120.739 126.474 119.453 130.204 117.43 133.535C116.434 135.233 115.277 136.831 113.977 138.307C112.624 139.902 110.988 141.23 109.153 142.223C107.139 143.231 104.855 143.555 102.643 143.148C100.564 142.763 98.6084 141.878 96.9424 140.569C93.9254 138.042 91.5802 134.8 90.1177 131.135Z" fill="black"/>
<path d="M200.623 163.596C200.304 164.433 199.822 165.198 199.205 165.843C198.607 166.534 197.871 167.09 197.045 167.475C196.15 167.819 195.179 167.911 194.236 167.743C193.27 167.578 192.359 167.174 191.586 166.566H192.461C190.576 167.902 188.532 168.993 186.378 169.816C184.233 170.589 182.012 171.127 179.753 171.421C175.206 172.157 170.555 171.846 166.144 170.512C161.681 169.022 157.757 166.229 154.868 162.485C151.955 158.785 150.43 154.167 150.561 149.443C150.564 149.42 150.575 149.4 150.592 149.385C150.609 149.37 150.631 149.362 150.654 149.362C150.654 149.362 150.72 149.362 150.733 149.443C151.423 153.863 153.323 158.001 156.219 161.388C159.022 164.783 162.595 167.445 166.634 169.147C170.715 171.001 175.247 171.592 179.66 170.846C181.835 170.368 183.937 169.604 185.914 168.572C187.902 167.569 189.89 166.526 191.732 165.335L192.209 165.04L192.593 165.388C193.143 165.879 193.802 166.228 194.514 166.405C195.23 166.599 195.985 166.599 196.701 166.405C197.45 166.156 198.15 165.776 198.768 165.281C199.422 164.777 199.998 164.177 200.477 163.502C200.494 163.488 200.515 163.48 200.537 163.48C200.559 163.48 200.58 163.488 200.597 163.502C200.611 163.513 200.621 163.528 200.625 163.545C200.63 163.562 200.629 163.579 200.623 163.596Z" fill="black"/>
<path d="M192.858 165.766C192.858 160.923 192.858 155.954 192.858 151.089" stroke="black" stroke-width="0.64" stroke-miterlimit="10"/>
<path d="M193.004 151.036C189.849 148.383 185.048 148.555 181.064 147.268C178.643 146.499 174.373 143.726 173.339 141.471C172.17 138.923 174.196 135.779 176.929 134.943C178.334 134.616 179.796 134.6 181.208 134.896C182.62 135.192 183.946 135.793 185.089 136.655C186.146 137.498 187.329 138.179 188.598 138.671C189.188 138.892 189.842 138.887 190.429 138.658C191.016 138.43 191.494 137.994 191.766 137.438C192.075 136.683 192.448 135.955 192.881 135.262C193.493 134.452 195.248 134.612 196.077 135.262C196.907 135.912 198.022 136.708 198.036 137.716C198.117 143.553 196.58 146.83 193.072 151.089" fill="black"/>
<path d="M192.934 150.336C189.223 147.367 184.231 147.964 180.015 146.188C178.059 145.371 176.274 144.212 174.749 142.769C173.982 142.127 173.411 141.292 173.098 140.357C172.874 139.307 173.08 138.214 173.671 137.309C174.346 136.283 175.338 135.492 176.505 135.049C177.672 134.606 178.953 134.535 180.165 134.844C181.456 135.111 182.689 135.595 183.808 136.275C184.845 137.007 185.92 137.688 187.027 138.316C187.433 138.576 187.893 138.746 188.374 138.813C188.855 138.88 189.346 138.842 189.81 138.703C190.275 138.563 190.702 138.326 191.06 138.007C191.419 137.688 191.7 137.296 191.884 136.858C192.361 135.825 192.675 134.685 194.053 134.764C194.608 134.846 195.138 135.042 195.608 135.34C196.079 135.637 196.479 136.028 196.781 136.487C197.118 137.157 197.228 137.913 197.095 138.647C197.095 139.27 197.095 139.972 196.945 140.529C196.809 141.726 196.534 142.904 196.126 144.041C195.217 146.34 193.907 148.47 192.252 150.336C191.897 150.76 192.525 151.37 192.88 150.946C194.419 149.167 195.691 147.186 196.658 145.062C197.569 142.849 198.032 140.487 198.023 138.104C198.077 137.553 197.991 136.998 197.773 136.487C197.554 135.976 197.209 135.526 196.768 135.175C196.071 134.473 195.145 134.028 194.148 133.916C193.723 133.853 193.289 133.906 192.894 134.07C192.498 134.234 192.158 134.502 191.911 134.844C191.174 135.944 190.997 137.706 189.428 137.971C187.859 138.236 186.591 137.123 185.499 136.368C184.382 135.56 183.157 134.905 181.857 134.42C180.68 133.934 179.397 133.74 178.123 133.853C176.85 133.966 175.625 134.384 174.558 135.069C173.683 135.668 172.998 136.493 172.584 137.452C172.169 138.41 172.04 139.463 172.212 140.489C172.676 142.451 174.613 143.935 176.209 145.048C178.406 146.555 180.916 147.577 183.562 148.043C186.563 148.626 189.851 148.984 192.293 150.946C192.73 151.29 193.357 150.694 192.921 150.336H192.934Z" fill="black"/>
<path d="M50.7938 85.4733C45.1033 70.7616 44.5548 54.5318 49.239 39.4633C53.9232 24.3948 63.5601 11.3881 76.5588 2.5901C77.2885 22.8825 78.1509 43.6033 78.8939 63.8957" fill="#F1E8E3"/>
<path d="M82.3477 63.0257C83.7056 51.2838 84.7647 37.9868 88.947 26.9151C93.1294 15.8433 100.449 5.46884 111.04 0C111.923 16.1133 111.923 32.2616 111.04 48.3749" fill="#F1E8E3"/>
<mask id="mask0_105_317" style="mask-type:luminance" maskUnits="userSpaceOnUse" x="46" y="2" width="34" height="85">
<path d="M51.2292 86.2382C45.48 71.337 44.8545 54.9459 49.4513 39.6499C54.2192 24.6287 63.9177 11.6566 76.9764 2.8339L79.1955 63.6324" fill="white"/>
</mask>
<g mask="url(#mask0_105_317)">
<path d="M67.5385 70.6506C64.1408 49.6026 65.308 28.0702 70.9608 7.51276L26.1641 15.3467L38.1954 97.307L65.0387 86.5188L67.6054 70.6506" fill="#E0D4CB"/>
</g>
<path d="M159.685 390.091C161.688 393.217 166.976 392.148 169.032 389.021C171.089 385.895 172.958 380.056 172.384 376.394C169.112 355.897 158.39 338.058 145.784 321.61C151.847 324.282 159.244 319.966 162.035 313.926C164.826 307.887 164.199 300.885 163.157 294.311C160.556 278.053 155.744 262.229 148.855 247.276C151.339 250.417 156.467 250.216 159.698 247.864C162.93 245.513 164.679 241.638 166.041 237.87C172.055 220.539 172.982 201.848 168.712 184.007C154.023 180.479 140.589 174.921 125.647 176.791C114.67 178.128 103.601 184.181 92.6774 182.47C84.1712 181.134 77.4276 175.896 72.2198 169.108C67.0119 162.32 63.4333 155.158 62.9927 146.566C62.5988 141.156 63.4579 135.729 65.5031 130.706C68.5344 123.65 78.8565 113.335 87.2825 115.419C91.1951 116.381 94.1596 119.695 98.1656 119.428C101.891 119.134 103.934 116.528 107.179 114.698C119.304 107.856 133.566 110.408 147.079 111.424C160.954 112.466 176.724 108.498 184.322 96.8458C188.034 91.1669 189.063 83.3366 185.377 77.6443C181.692 71.9521 172.678 70.0013 167.857 74.7582C173.759 71.2306 179.435 66.6473 182.065 60.287C184.696 53.9266 183.401 45.5889 177.565 41.8341C173.052 38.9346 167.19 39.4823 161.968 40.6982C148.718 43.7982 136.543 50.402 126.715 59.8195C128.389 57.4328 129.615 54.7613 130.334 51.9356C130.676 50.5166 130.624 49.0313 130.184 47.6396C129.744 46.248 128.932 45.0029 127.837 44.0388C124.272 41.3663 119.197 43.3573 115.245 45.375L71.5788 68.438C66.2375 71.2574 60.7759 74.1836 56.7432 78.6866C51.4018 84.7129 48.8112 93.2782 42.1745 97.8881C38.9296 100.146 35.0305 101.215 31.5987 103.166C28.1668 105.117 25.0154 108.511 25.229 112.426C25.4427 116.341 30.8108 119.495 33.575 116.675C27.5125 118.64 21.3432 120.764 16.3623 124.693C11.3815 128.621 7.72267 134.901 8.53723 141.235C9.35179 147.568 15.7614 153.127 21.8907 151.564C13.6382 154.797 7.7761 162.507 4.71816 170.845C1.66022 179.183 1.0326 188.216 0.538519 197.035C0.103333 200.891 0.342864 204.793 1.24629 208.567C2.35463 212.268 4.9985 215.996 8.80423 216.69C11.1411 217.118 16.3356 215.02 17.5508 211.346V211.453C14.4907 222.374 13.3875 233.752 14.2925 245.058C14.5061 247.624 14.9068 250.403 16.6962 252.234C18.4855 254.064 22.1177 254.265 23.3729 251.98C22.0376 258.661 20.4218 267.226 21.3832 273.947C22.3447 280.668 26.0836 287.39 32.3196 290.049C24.6815 296.315 23.6801 306.016 22.732 315.837C21.7839 325.658 20.9292 335.52 27.2321 343.109" fill="#F5EAE1"/>
<path d="M125.149 153.472C127.349 152.406 129.392 151.024 131.218 149.368C131.934 148.8 132.525 148.082 132.953 147.261C133.172 146.855 133.286 146.398 133.286 145.934C133.286 145.469 133.172 145.013 132.953 144.607C132.538 144.141 132.02 143.783 131.444 143.565C130.868 143.346 130.25 143.272 129.641 143.348C126.582 143.31 123.536 143.771 120.617 144.716C119.043 145.126 117.597 145.945 116.417 147.097C115.835 147.68 115.432 148.425 115.255 149.242C115.079 150.058 115.137 150.91 115.423 151.693C115.974 152.731 116.874 153.524 117.954 153.924C119.111 154.399 120.356 154.604 121.6 154.526C122.844 154.448 124.055 154.088 125.149 153.472Z" fill="#EDD1EC"/>
<path d="M22.1724 168.356C21.3092 171.61 20.705 174.925 20.3653 178.27C20.0443 181.568 20.0443 184.887 20.3653 188.184C20.4191 188.886 20.6642 189.561 21.0748 190.138C21.2429 190.377 21.4665 190.572 21.7273 190.709C21.988 190.846 22.2783 190.92 22.574 190.925C23.2671 190.789 23.9019 190.451 24.3945 189.955L26.4425 188.407C29.1197 186.335 31.9844 184.355 34.8625 182.454C32.4173 184.867 29.9006 187.192 27.3126 189.43L25.3583 191.109C24.6375 191.842 23.7019 192.336 22.6811 192.525C22.1164 192.557 21.5522 192.455 21.0369 192.226C20.5216 191.998 20.0707 191.65 19.7228 191.213C19.1116 190.413 18.7322 189.467 18.625 188.473C18.3013 185.029 18.45 181.558 19.0669 178.152C19.6263 174.76 20.6718 171.462 22.1724 168.356Z" fill="#E0D4CB"/>
<path d="M44.4791 221.885C44.193 225.149 44.29 228.436 44.7682 231.676C45.0082 233.269 45.3549 234.844 45.8062 236.39C46.139 237.831 46.8957 239.134 47.9745 240.123C48.5495 240.51 49.1994 240.765 49.8798 240.872C50.5601 240.979 51.2549 240.934 51.9169 240.741C53.4235 240.392 54.8839 239.86 56.2666 239.156C59.1281 237.74 61.6838 235.754 63.7833 233.314L63.9147 233.583L62.2064 233.381C62.7715 233.381 63.3496 233.274 63.9147 233.247H64.2169L64.046 233.529C62.2735 236.404 59.8309 238.785 56.9368 240.459C55.467 241.307 53.8939 241.953 52.2585 242.379C51.399 242.592 50.5105 242.656 49.6303 242.567C48.6759 242.465 47.767 242.099 47.0021 241.507C45.6593 240.282 44.7378 238.647 44.3739 236.846C43.144 231.934 43.2075 226.777 44.5579 221.899L44.4791 221.885Z" fill="#E0D4CB"/>
<path d="M41.0694 284.048L40.9729 292.262C40.9729 295.001 40.9729 297.739 40.9729 300.368C40.9699 301.573 41.3199 302.752 41.9801 303.763C42.3275 304.198 42.7814 304.537 43.2983 304.747C43.8153 304.958 44.3781 305.034 44.933 304.968C46.1875 304.868 47.3813 304.39 48.3549 303.599C49.3995 302.722 50.373 301.766 51.2663 300.738C50.6554 301.996 49.8806 303.17 48.962 304.229C47.9616 305.363 46.6056 306.13 45.1124 306.406C44.3013 306.567 43.4614 306.509 42.6802 306.24C41.8989 305.97 41.2046 305.498 40.6692 304.873C39.7467 303.618 39.2361 302.112 39.2067 300.559C39.1221 297.79 39.2328 295.017 39.5378 292.262C39.8205 289.487 40.3328 286.74 41.0694 284.048Z" fill="#E0D4CB"/>
<path d="M74.5771 270.275C75.8688 272.997 77.1605 275.881 78.2067 278.739C78.788 280.099 79.3047 281.677 79.8472 282.956C80.3896 284.235 81.2162 284.412 82.3141 283.718C82.8721 283.352 83.3696 282.893 83.7866 282.358C84.2645 281.8 84.7166 281.215 85.0782 280.63C85.9595 279.439 86.7663 278.189 87.4936 276.888C88.9577 274.245 90.128 271.432 90.9811 268.507C90.7448 271.646 89.9517 274.71 88.6432 277.541C87.9897 278.969 87.2205 280.335 86.344 281.623C85.9178 282.262 85.4399 282.875 84.9491 283.487C84.4233 284.15 83.7996 284.72 83.102 285.174C82.6981 285.452 82.2442 285.639 81.7685 285.723C81.2929 285.808 80.8059 285.787 80.338 285.664C79.886 285.494 79.4748 285.223 79.1334 284.868C78.7919 284.513 78.5285 284.083 78.3617 283.609C77.7934 282.031 77.3801 280.657 76.928 279.147C76.0885 276.262 75.2746 273.282 74.5771 270.275Z" fill="#E0D4CB"/>
<path d="M100.478 218.08C101.16 221.904 102.36 225.621 104.046 229.132C104.849 230.855 105.814 232.5 106.93 234.046C107.431 234.722 108.094 235.265 108.862 235.627C109.176 235.757 109.524 235.792 109.858 235.726C110.193 235.66 110.5 235.497 110.74 235.258C111.36 234.61 111.876 233.872 112.269 233.071C112.765 232.241 113.221 231.385 113.61 230.542C114.522 228.829 115.3 227.064 116.051 225.272C117.5 221.651 118.644 217.92 119.472 214.115C119.302 218.063 118.575 221.969 117.312 225.72C116.691 227.605 115.948 229.449 115.086 231.24C114.656 232.136 114.187 233.018 113.744 233.874C113.277 234.845 112.651 235.735 111.893 236.509C111.415 236.951 110.82 237.252 110.176 237.379C109.52 237.484 108.848 237.411 108.231 237.168C107.185 236.697 106.287 235.961 105.629 235.034C105.042 234.194 104.517 233.313 104.059 232.399C103.589 231.515 103.173 230.605 102.812 229.672C101.299 225.987 100.507 222.054 100.478 218.08Z" fill="#E0D4CB"/>
<path d="M132.423 294.904C132.826 295.828 133.544 296.584 134.452 297.04C135.36 297.496 136.401 297.623 137.394 297.4C138.329 297.127 139.19 296.653 139.917 296.011C140.643 295.369 141.217 294.576 141.596 293.688C142.497 291.836 143.016 289.826 143.122 287.773C143.239 285.645 143.006 283.512 142.433 281.457C143.669 283.347 144.377 285.526 144.487 287.773C144.623 290.076 144.158 292.375 143.136 294.45C142.59 295.515 141.842 296.467 140.934 297.254C139.987 298.072 138.807 298.58 137.556 298.709C136.327 298.803 135.102 298.477 134.085 297.788C133.596 297.471 133.191 297.045 132.902 296.543C132.613 296.042 132.449 295.48 132.423 294.904Z" fill="#E0D4CB"/>
<path d="M63.9683 331.1C63.4626 330.377 62.9699 329.668 62.4902 328.933L62.8791 328.723C64.6683 331.52 66.3408 334.395 68.0652 337.271C68.8099 338.705 69.6413 340.091 70.5546 341.421C70.9496 341.99 71.4863 342.443 72.1103 342.734C72.3641 342.826 72.6371 342.85 72.9028 342.804C73.1685 342.758 73.418 342.643 73.6273 342.471C74.5738 341.71 75.0147 339.976 75.65 338.453C76.2852 336.93 76.8556 335.354 77.4909 333.818C78.7874 330.732 80.0841 327.672 81.4843 324.626C80.6416 327.856 79.695 331.06 78.6708 334.225C78.1651 335.814 77.6336 337.39 77.0891 338.965C76.8168 339.766 76.5834 340.528 76.2463 341.355C75.9249 342.274 75.3811 343.095 74.6646 343.745C74.2385 344.104 73.7264 344.343 73.18 344.438C72.6337 344.532 72.0725 344.479 71.5529 344.284C70.652 343.899 69.872 343.272 69.297 342.471C68.783 341.77 68.3481 341.012 68.0004 340.213L66.8725 337.994C65.4074 335.013 63.9553 332.019 62.6199 328.959L63.0089 328.736C63.2552 329.497 63.5793 330.298 63.9683 331.1Z" fill="#E0D4CB"/>
<path d="M148.354 217.23C148.233 217.908 148.246 218.603 148.391 219.275C148.536 219.948 148.811 220.585 149.2 221.149C149.904 222.245 150.948 223.073 152.167 223.503C153.394 223.832 154.684 223.838 155.915 223.522C157.146 223.205 158.277 222.576 159.201 221.694C161.108 219.822 162.398 217.398 162.893 214.754C163.402 211.979 163.685 209.166 163.739 206.345C164.358 209.184 164.521 212.106 164.222 214.999C163.905 218.045 162.535 220.879 160.356 223C159.206 224.035 157.823 224.769 156.328 225.136C154.802 225.5 153.201 225.372 151.75 224.769C150.324 224.138 149.173 223.001 148.515 221.571C148.182 220.902 147.995 220.168 147.967 219.418C147.939 218.669 148.071 217.923 148.354 217.23Z" fill="#E0D4CB"/>
</svg>
