<svg width="264" height="50" viewBox="0 0 264 50" fill="none" xmlns="http://www.w3.org/2000/svg">
<path d="M17.0326 21.29C17.0326 21.29 13.116 15.4607 11.0667 12.546C10.4291 11.5896 9.65486 10.7699 8.74402 10.0412C6.83127 8.62939 4.50864 9.26698 3.46118 11.4074C3.0513 12.3183 2.77805 13.3657 2.68697 14.4132C2.45926 16.6903 2.23155 18.9674 2.27709 21.2445C2.32263 25.4343 2.5048 29.6242 2.73251 33.814C2.77805 34.5882 3.00576 35.3169 3.37009 35.9545C3.91659 36.8653 4.87297 37.3663 5.87489 37.3663C6.92235 37.3207 7.83319 36.7742 8.33415 35.8634C8.65294 35.1802 8.83511 34.406 8.83511 33.6774C8.88065 32.4477 8.69848 31.1726 8.65294 29.9429C8.56185 27.1194 8.47077 24.2502 8.37969 21.3811C8.37969 21.0623 8.47077 19.9693 8.78956 20.1059C9.10836 20.2425 10.0647 21.9276 10.6112 22.7018C12.2963 25.1155 13.9358 27.5748 15.7575 29.9429C16.5317 30.9904 17.5336 31.9012 18.6266 32.6299C20.5393 33.8595 22.6798 33.313 23.8639 31.4003C24.3193 30.5805 24.6836 29.7152 24.9114 28.7589C25.1846 27.5748 25.3668 26.3451 25.5034 25.1155C26.2321 19.605 26.9607 14.1399 27.6894 8.67493C27.7805 8.17397 27.826 7.71855 27.826 7.26314C27.826 5.62363 26.8697 4.39401 25.4579 4.07521C24.0005 3.80196 22.6343 4.53063 22.0878 6.07905C21.8145 6.76218 21.6323 7.53639 21.5413 8.26506C20.9492 12.8192 20.3572 17.3279 19.7651 21.882C19.674 22.5196 19.5374 23.7493 19.2186 24.3868C18.8998 25.0244 17.0326 21.29 17.0326 21.29ZM33.6479 10.7699C33.1925 11.3619 32.8282 11.9995 32.5094 12.6826C31.1886 15.5973 30.8699 18.3753 31.0976 22.2919C31.1431 23.2028 31.1431 24.1591 31.2342 25.1155C31.5074 27.4837 32.4638 29.7608 33.8756 31.6735C36.2438 34.7704 40.1148 35.6812 43.0295 34.7248C44.8967 34.1328 46.5818 33.2675 47.9936 31.9923C52.2745 28.1213 54.3694 23.2938 54.0962 17.51C54.0051 15.1419 53.2309 12.8192 51.9102 10.8154C51.8191 10.7243 50.3617 8.58385 48.2213 7.39976C43.3938 4.66726 37.3368 7.85518 36.9269 8.08289C35.6517 8.72047 34.5132 9.63131 33.6479 10.7699ZM43.8037 27.5748C40.9346 29.8974 38.612 29.1687 37.61 25.662C36.7903 23.0206 37.2457 20.3792 37.7922 17.7377C37.9288 17.0091 38.2476 16.2804 38.4753 15.5973C38.8852 14.4587 39.6594 13.639 40.6158 12.9559C42.6652 11.5441 45.17 11.9539 46.6729 13.9578C47.6292 15.324 47.9936 16.8725 47.9936 18.5575C47.948 22.1553 46.5818 25.2521 43.8037 27.5748ZM66.5696 26.8916C68.5735 26.3451 70.5318 25.5254 72.3534 24.4779C73.9929 23.476 75.4047 22.2464 76.5433 20.6524C79.2302 16.7814 78.8659 12.2727 75.5414 8.90264C73.1732 6.53447 70.213 5.30484 66.8429 5.12267C64.748 4.98605 62.653 5.12267 60.7403 6.21567C59.3285 7.03543 58.5543 8.12843 58.5087 9.85902C58.4176 12.7281 58.0989 15.5517 58.0078 18.4209C57.8711 22.7929 57.8256 27.1649 57.8256 31.5824C57.8256 32.5388 57.9622 33.4497 58.281 34.3605C58.7364 35.7723 60.0116 36.4554 61.4234 36.2733C62.7897 36.0911 63.8827 34.9981 63.9737 33.5863C64.0648 32.8576 63.9282 32.0834 63.9282 31.3092C63.9282 30.1707 63.9282 29.0776 63.9282 27.6203C64.9301 27.3471 65.7499 27.1194 66.5696 26.8916ZM64.0648 21.5633C64.0648 20.6069 64.0648 19.605 64.1104 18.603C64.1559 16.2804 64.3836 13.9122 64.7024 11.5896C65.2034 11.4985 65.7043 11.453 66.2053 11.4074C66.934 11.3619 67.6626 11.4074 68.3913 11.5896C69.5754 11.8629 70.6684 12.546 71.4426 13.5024C71.8069 13.9578 72.2168 14.4587 72.2623 15.1874C72.3534 16.2349 71.7614 17.0091 71.4426 17.419C70.9872 17.9655 70.5318 18.2842 69.6209 18.9218C69.0289 19.3317 68.5279 19.605 68.3002 19.7416C66.934 20.4703 65.5222 21.0623 64.0648 21.5633ZM95.7818 23.5671C96.9204 22.4285 98.1956 21.3811 99.1064 20.0604C102.203 15.5973 100.928 10.2689 96.1917 7.53639C93.0493 5.71472 89.7248 5.44147 86.2636 6.48893C82.3015 7.67301 81.8916 8.12843 81.755 12.2727C81.5273 18.6486 81.6183 25.0244 82.3015 31.4003C82.3926 32.1745 82.5292 32.9032 82.8024 33.6318C83.0757 34.3605 83.6222 34.9525 84.3053 35.2713C85.034 35.5901 85.8537 35.5901 86.5369 35.3169C87.8576 34.8159 88.4496 33.7685 88.4952 32.4022C88.5407 31.4914 88.4952 30.535 88.4952 29.442C88.6318 29.3054 88.7229 29.2598 88.8595 29.1687C89.1327 29.0321 90.1347 28.7589 93.3681 31.5824C95.1443 33.0853 95.5541 33.814 97.1025 34.5882C98.0589 35.1347 98.8331 35.3624 99.5618 35.1802C100.609 34.907 101.475 34.315 101.793 33.1764C102.158 31.9923 101.976 30.8538 100.974 30.0796C99.9717 29.2143 98.7876 28.5767 97.6946 27.8025C96.465 26.9827 95.0987 26.2996 93.8691 25.07C94.6433 24.5235 95.2353 24.1136 95.7818 23.5671ZM93.6869 13.4568C94.7344 14.1855 94.9165 15.324 94.279 16.5081C94.0512 16.918 93.778 17.3279 93.4592 17.6467C92.7761 18.4209 91.9563 19.104 91.0455 19.6505C90.499 20.0148 89.9069 20.3792 89.3149 20.6524C89.0417 20.789 88.7229 20.789 88.4496 20.6524C88.1764 20.5158 88.0397 20.2425 87.9942 19.9238C87.9031 19.0129 87.812 17.9655 87.7665 16.8725C87.7665 15.825 87.8576 14.7775 88.0397 13.7301C88.1308 13.0925 88.5407 12.5915 89.1327 12.4094C90.8633 11.8629 92.2296 12.4094 93.6869 13.4568ZM106.675 10.7699C106.219 11.3619 105.855 11.9995 105.536 12.6826C104.216 15.5973 103.897 18.3753 104.125 22.2919C104.17 23.2028 104.17 24.1591 104.261 25.1155C104.534 27.4837 105.491 29.7608 106.903 31.6735C109.271 34.7704 113.142 35.6812 116.056 34.7248C117.924 34.1328 119.609 33.2675 121.021 31.9923C125.301 28.1213 127.396 23.2938 127.123 17.51C127.032 15.1419 126.258 12.8192 124.937 10.8154C124.846 10.7243 123.389 8.58385 121.248 7.39976C116.421 4.66726 110.364 7.85518 109.954 8.08289C108.679 8.72047 107.54 9.63131 106.675 10.7699ZM116.831 27.5748C113.962 29.8974 111.639 29.1687 110.637 25.662C109.817 23.0206 110.273 20.3792 110.819 17.7377C110.956 17.0091 111.275 16.2804 111.502 15.5973C111.912 14.4587 112.686 13.639 113.643 12.9559C115.692 11.5441 118.197 11.9539 119.7 13.9578C120.656 15.324 121.021 16.8725 121.021 18.5575C120.975 22.1553 119.609 25.2521 116.831 27.5748ZM145.883 15.825C146.43 15.0052 147.022 14.1855 147.432 13.2747C148.525 10.9065 148.024 8.72047 146.339 6.8988C145.61 6.17013 144.79 5.57809 143.88 5.16821C141.056 3.80196 138.096 3.61979 135.045 4.48509C132.904 5.03159 131.766 6.3523 131.629 8.53831C131.173 15.7794 130.581 23.0206 130.809 30.2617C130.855 31.8557 130.9 33.4041 131.219 34.9525C131.629 37.1841 133.724 38.0949 135.591 36.9108C136.639 36.2277 137.686 35.8178 138.779 35.3624C141.238 34.4516 143.47 33.222 145.337 31.4003C146.703 30.1251 147.796 28.6678 148.479 26.9372C149.755 23.7493 148.98 20.698 146.293 18.5575C145.792 18.1476 145.246 17.8288 144.654 17.3734C145.109 16.8269 145.519 16.3715 145.883 15.825ZM136.821 22.2008C138.642 22.2464 140.327 22.2919 141.967 22.9295C143.014 23.3394 143.333 24.0681 142.832 25.07C142.513 25.662 142.149 26.163 141.739 26.6639C140.51 28.0302 138.961 28.9866 136.821 29.8063C136.411 27.0738 136.684 24.7512 136.821 22.2008ZM137.686 9.9501C139.234 9.90456 140.646 9.76793 141.921 10.9976C141.011 13.0014 139.325 14.1855 137.185 15.5517C137.231 13.3657 137.276 11.7262 137.686 9.9501ZM160.218 7.26314C160.081 5.94242 159.079 4.84942 157.758 4.62171C155.664 4.25738 154.297 6.07905 154.206 7.99181C153.751 12.3638 153.204 16.6903 152.84 21.0168C151.793 39.3701 149.106 37.6395 167.732 35.5446C171.603 35.3624 172.332 29.8519 168.096 29.6242C164.726 29.8974 161.812 30.4894 158.351 30.6716C158.351 22.6563 159.671 15.1874 160.218 7.26314ZM193.191 32.4022C194.694 35.2713 199.157 34.0417 198.975 30.8538C197.837 24.7512 195.833 18.7852 194.284 12.7737C193.237 8.12843 189.639 3.98413 185.267 8.26506C184.493 9.03927 183.81 9.90456 183.263 10.8154C179.574 17.2368 176.523 24.0225 173.153 30.6261C171.878 33.5407 175.703 36.3188 178.026 34.0872C179.438 32.6299 180.349 30.6716 181.396 28.941L191.825 28.4856C192.417 30.034 192.554 30.9904 193.191 32.4022ZM188.091 15.0963C189.138 17.2823 189.776 19.605 190.049 21.9731C188.318 22.5196 186.679 22.2464 184.493 22.3375C185.54 19.8327 186.725 17.419 188.091 15.0963ZM215.078 13.7756C214.395 12.3183 213.757 10.8154 212.983 9.4036C212.027 7.7641 210.751 6.53447 208.611 6.71664C206.516 6.8988 205.514 8.44722 204.831 10.1778C204.467 11.1342 204.148 12.1361 203.966 13.1836C202.918 17.8288 202.645 22.6107 202.326 27.3471C202.281 28.4856 202.281 29.6242 202.189 30.7627C201.962 33.2675 203.328 34.5427 205.013 34.6793C206.698 34.8159 207.928 33.4952 208.201 31.3092C208.338 29.9885 208.383 28.6678 208.52 27.3471C208.748 24.3868 208.975 21.4266 209.203 18.512C209.248 18.1476 209.567 17.2823 209.886 17.51C210.205 17.7833 210.068 17.6467 210.934 19.3317C211.571 20.4703 212.163 21.6999 212.983 22.7018C214.577 24.6146 216.808 24.8878 218.858 23.5216C219.723 22.884 220.497 22.2008 221.18 21.3811C222.273 20.197 223.275 18.8763 224.323 17.6467C224.596 17.3279 225.416 16.5081 225.552 16.5537C225.735 16.5992 225.689 16.6447 225.78 17.9199C225.917 19.2406 226.19 24.9789 226.418 28.4856C226.418 29.2598 226.463 30.034 226.554 30.7627C226.919 32.721 228.148 33.8595 229.788 33.7229C231.427 33.6318 232.566 32.3567 232.611 30.3984C232.657 29.3509 232.52 28.3034 232.475 27.256C232.338 24.8878 232.202 22.5196 232.065 20.1059C231.883 17.7377 231.746 15.3696 231.518 13.0014C231.427 12.1361 231.245 11.3164 230.972 10.4966C229.97 7.94626 227.556 7.03543 225.143 8.40168C224.323 8.90264 223.594 9.49468 222.911 10.1323C221.772 11.3164 220.679 12.546 219.632 13.7301C218.767 14.732 217.4 17.51 216.763 17.1912C216.08 16.8725 215.579 14.7775 215.078 13.7756ZM255.633 32.4022C257.136 35.2713 261.599 34.0417 261.417 30.8538C260.279 24.7512 258.275 18.7852 256.726 12.7737C255.679 8.12843 252.081 3.98413 247.709 8.26506C246.935 9.03927 246.252 9.90456 245.705 10.8154C242.016 17.2368 238.965 24.0225 235.595 30.6261C234.32 33.5407 238.145 36.3188 240.468 34.0872C241.88 32.6299 242.791 30.6716 243.838 28.941L254.267 28.4856C254.859 30.034 254.996 30.9904 255.633 32.4022ZM250.533 15.0963C251.58 17.2823 252.218 19.605 252.491 21.9731C250.761 22.5196 249.121 22.2464 246.935 22.3375C247.982 19.8327 249.167 17.419 250.533 15.0963Z" fill="black"/>
<path d="M2.44092 42.6967C10.6536 42.6967 18.8664 42.6851 27.079 42.7312C33.6533 42.768 41.4901 42.7991 48.2023 43.0413C50.7545 43.1334 54.277 43.0894 56.817 44.075C58.7309 44.8178 53.0653 45.9248 51.0279 46.177C42.4977 47.2332 33.9421 48.0441 25.3905 48.8993" stroke="#8F76F5" stroke-width="1.06739" stroke-linecap="round"/>
</svg>
