<svg width="34" height="34" viewBox="0 0 34 34" fill="none" xmlns="http://www.w3.org/2000/svg">
<path d="M18.7634 2.51722L30.229 10.8475C31.2805 11.6115 31.7205 12.9656 31.3188 14.2016L26.9394 27.6803C26.5377 28.9164 25.3859 29.7533 24.0862 29.7533H9.91382C8.61414 29.7533 7.46227 28.9164 7.06065 27.6803L2.68115 14.2016C2.27953 12.9656 2.7195 11.6115 3.77097 10.8475L15.2366 2.51722C16.2881 1.75329 17.7119 1.75329 18.7634 2.51722Z" stroke="#1A1A1A" stroke-width="2"/>
<path d="M17.5878 13.3873L20.2543 15.3246C20.6048 15.5792 20.7514 16.0306 20.6175 16.4426L19.599 19.5773C19.4652 19.9893 19.0812 20.2683 18.648 20.2683H15.352C14.9188 20.2683 14.5348 19.9893 14.4009 19.5773L13.3824 16.4426C13.2486 16.0306 13.3952 15.5792 13.7457 15.3246L16.4122 13.3873C16.7627 13.1326 17.2373 13.1326 17.5878 13.3873Z" fill="#1A1A1A" stroke="#1A1A1A" stroke-width="2"/>
</svg>
